<svg width="16" height="21" viewBox="0 0 16 21" fill="none" xmlns="http://www.w3.org/2000/svg">
<path d="M8.03834 0.500091C11.6886 0.518807 14.2467 3.38966 14.7508 7.00502C15.2199 10.3687 10.8064 14.7555 10.8064 14.7555H9.09731H7.1146H5.13189C5.13189 14.7555 0.73927 10.6382 1.25662 7.00502C1.77397 3.37186 4.36859 0.481276 8.03834 0.500091Z" fill="#F1C40F"/>
<path d="M9.09731 14.7555H10.8064C10.8064 14.7555 15.2199 10.3687 14.7508 7.00502C14.2467 3.38966 11.6886 0.518807 8.03834 0.500091C4.36859 0.481276 1.77397 3.37186 1.25662 7.00502C0.73927 10.6382 5.13189 14.7555 5.13189 14.7555H7.1146M9.09731 14.7555H7.1146M9.09731 14.7555L11.2033 7.00502L10.3603 5.83537L9.31382 7.00502L8.23126 5.83537L6.93218 7.00502L5.77744 5.83537L4.62271 7.00502L7.1146 14.7555" stroke="#E67E22" stroke-width="0.5"/>
<path d="M10.8064 14.7555C10.8064 14.7555 15.2199 10.3687 14.7508 7.00502C14.2467 3.38966 11.6886 0.518807 8.03834 0.500091C4.36859 0.481276 1.77397 3.37186 1.25662 7.00502C0.73927 10.6382 5.13189 14.7555 5.13189 14.7555M10.8064 14.7555V19.392H9.35318C9.35318 19.392 8.70883 20.4665 8.03834 20.4992C7.32573 20.534 6.58514 19.392 6.58514 19.392H5.13189V14.7555M10.8064 14.7555H5.13189" stroke="black" stroke-width="0.5"/>
<path d="M10.8064 19.392H9.35316C9.35316 19.392 8.70881 20.4665 8.03832 20.4992C7.32571 20.534 6.58512 19.392 6.58512 19.392H5.13187V18.2329V17.0738V15.9147V14.7556H10.8064V15.9147V17.0738V18.2329V19.392Z" fill="#BDC3C7"/>
<path d="M9.35316 19.392H10.8064V18.2329M9.35316 19.392C9.35316 19.392 8.70881 20.4665 8.03832 20.4992C7.32571 20.534 6.58512 19.392 6.58512 19.392M9.35316 19.392H6.58512M6.58512 19.392H5.13187V18.2329M10.8064 17.0738H5.13187M10.8064 17.0738V18.2329M10.8064 17.0738V15.9147M5.13187 17.0738V18.2329M5.13187 17.0738V15.9147M10.8064 18.2329H5.13187M10.8064 15.9147V14.7556H5.13187V15.9147M10.8064 15.9147H5.13187" stroke="black" stroke-width="0.3"/>
<path d="M8.03829 20.4992C8.70877 20.4665 9.35312 19.392 9.35312 19.392H6.58508C6.58508 19.392 7.32567 20.5341 8.03829 20.4992Z" fill="#9B9C9D" stroke="black" stroke-width="0.3"/>
</svg>
