<svg width="22" height="15" viewBox="0 0 22 15" fill="none" xmlns="http://www.w3.org/2000/svg">
<path d="M19.0403 6.69293L19.2965 6.48044M18.5466 6.61793V7.14285M20.1589 6.61793L20.1339 6.48044M19.5965 7.1116L19.6652 7.08036M20.0589 5.96803L19.9964 5.85555M19.384 5.56186V5.39939M18.9966 5.81181V5.96803M18.8841 4.23706L18.9966 4.31205M18.9966 4.65576L19.0403 4.77449M19.5965 4.59952L19.6652 4.7245C19.6152 4.83281 19.5152 5.04945 19.5152 5.04945" stroke="#EAE5DC" stroke-width="0.2"/>
<path d="M17.8257 6.5173C17.7498 6.96772 18.0944 7.84416 18.0944 7.84416L21 7.15555C21 7.15555 20.8697 5.95154 20.5627 5.2563C20.4013 4.89074 19.9309 4.61915 19.69 4.3003C19.3654 3.87066 18.5479 3.52771 18.5479 3.52771C18.5479 3.52771 18.3442 3.89157 18.3127 4.14913C18.2527 4.64143 18.8049 4.8488 18.7494 5.34163C18.6841 5.92187 17.9226 5.9415 17.8257 6.5173Z" fill="#FAF7F2" stroke="#EAE5DC" stroke-width="0.2"/>
<path d="M16.9315 14.045C13.5702 15.1937 9.92836 13.431 8.74412 10.0819L5.78724 10.7024L5.93482 10.9738L1.318 11.976L1.16514 11.7588L1 11.4826L5.66413 10.4517L5.78724 10.7024L8.74412 10.0819C13.6408 9.02398 20.8777 7.44876 20.8777 7.44876C21.1439 10.5481 19.8751 13.039 16.9315 14.045Z" fill="#D9D9D9"/>
<path d="M1.16514 11.7588L1 11.4826L5.66413 10.4517C5.66413 10.4517 5.73916 10.6045 5.78724 10.7024M1.16514 11.7588C1.16514 11.7588 3.07881 11.3045 5.78724 10.7024M1.16514 11.7588L1.318 11.976L5.93482 10.9738L5.78724 10.7024M8.74412 10.0819C9.92836 13.431 13.5702 15.1937 16.9315 14.045C19.8751 13.039 21.1439 10.5481 20.8777 7.44876C20.8777 7.44876 13.6408 9.02398 8.74412 10.0819ZM8.74412 10.0819L5.78724 10.7024" stroke="black"/>
<path d="M1.16523 11.7754L1.00009 11.4992L5.66422 10.4684L5.78733 10.719L5.93491 10.9904L1.31809 11.9927L1.16523 11.7754Z" fill="#D9D9D9"/>
<path d="M1.16523 11.7754L1.00009 11.4992L5.66422 10.4684L5.78733 10.719M1.16523 11.7754C1.16523 11.7754 3.0789 11.3212 5.78733 10.719M1.16523 11.7754L1.31809 11.9927L5.93491 10.9904L5.78733 10.719" stroke="#2A3770"/>
<path d="M11.6761 5.23763C11.6774 5.23795 11.6786 5.23826 11.6798 5.23858L11.6761 5.23763ZM11.6761 5.23763C11.675 5.23317 11.6736 5.22871 11.6721 5.22435L11.6516 5.23155M12.3606 4.80792L12.3606 4.80793C12.374 4.81866 12.3886 4.83215 12.397 4.84173C12.4128 4.85974 12.421 4.87293 12.4247 4.8828C12.425 4.88358 12.4253 4.88441 12.4256 4.88528C12.3468 4.99005 12.3196 5.10278 12.3124 5.18997C12.3083 5.23861 12.3103 5.28039 12.3134 5.3104C12.314 5.31593 12.3146 5.32109 12.3152 5.32584C12.3108 5.31972 12.3062 5.31387 12.3013 5.30846C12.2724 5.27606 12.2371 5.26741 12.2117 5.26601L12.1754 5.264L12.1463 5.2858C12.1283 5.29929 12.1112 5.31417 12.0935 5.33966C12.0792 5.36038 12.065 5.38729 12.0474 5.42208C12.029 5.45846 12.0144 5.50507 12.0046 5.53953C11.9947 5.57471 11.9875 5.60644 11.9856 5.61717L11.9642 5.73849L12.0802 5.73476C12.0818 5.73521 12.0839 5.73586 12.0866 5.73679C12.0962 5.7401 12.1084 5.74524 12.121 5.75131C12.1439 5.76243 12.1666 5.77639 12.1819 5.78588C12.1831 5.7866 12.1842 5.7873 12.1853 5.78797L12.2363 5.8194L12.2881 5.78925C12.3155 5.77331 12.3359 5.76184 12.3517 5.75712L12.43 5.73387L12.4298 5.73074L12.4455 5.73733C12.5645 5.78708 12.6512 5.86585 12.676 5.94587C12.6897 5.99023 12.684 6.03526 12.6631 6.06784C12.6441 6.09751 12.6047 6.12883 12.5245 6.13321L12.4552 6.137L12.4345 6.20325C12.3999 6.31405 12.3446 6.36196 12.2982 6.39393C12.2585 6.42129 12.1677 6.45769 12.0935 6.45914C12.0184 6.4606 11.9244 6.45077 11.8329 6.40448L11.7889 6.38222L11.7444 6.40357C11.7017 6.42412 11.6635 6.43109 11.6452 6.42946L11.6453 6.42869L11.6328 6.42913C11.6264 6.42936 11.6211 6.42956 11.6165 6.42973C11.6018 6.43029 11.5953 6.43053 11.5884 6.43022C11.5824 6.42995 11.5749 6.42916 11.5561 6.42471C11.5194 6.41607 11.4794 6.39715 11.4463 6.35855L11.4173 6.32473L11.3728 6.32364C11.3388 6.32281 11.2978 6.3182 11.2622 6.30777C11.2208 6.29566 11.1921 6.2793 11.1725 6.26664C11.138 6.24437 11.1042 6.1971 11.0804 6.14681C11.0589 6.10136 11.0545 6.08969 11.0542 6.06502L11.0542 6.06502L11.0542 6.06381C11.0535 6.03449 11.0555 6.02571 11.06 6.01178L11.0812 5.94585L11.027 5.9028C11 5.8814 10.9739 5.85899 10.9569 5.83788C10.9387 5.81529 10.9236 5.7904 10.913 5.76477C10.904 5.74333 10.8997 5.72003 10.8929 5.68412C10.8922 5.68042 10.8915 5.67659 10.8907 5.67261C10.8908 5.67286 10.8908 5.67283 10.8908 5.67253C10.8907 5.67163 10.8903 5.66824 10.8902 5.66195C10.8901 5.65439 10.8905 5.6452 10.8913 5.63557C10.8921 5.6259 10.8933 5.61687 10.8947 5.60949C10.8959 5.60331 10.8969 5.60014 10.8972 5.59936C10.8972 5.59914 10.8972 5.59911 10.8972 5.59925C10.8993 5.5941 10.9054 5.5831 10.916 5.56929C10.9263 5.5559 10.9379 5.54367 10.9483 5.53501C10.959 5.52615 10.9779 5.5151 10.9986 5.50492C11.0081 5.50024 11.0166 5.49642 11.0226 5.49379L11.0295 5.49088L11.0311 5.49023L11.0312 5.49017L11.0312 5.49017L11.0313 5.49016L11.0313 5.49015L11.0313 5.49013L11.0313 5.49013L11.094 5.4653L11.0944 5.39776C11.0945 5.37478 11.096 5.34839 11.0997 5.32793C11.1038 5.30499 11.1116 5.27231 11.1202 5.2488C11.1313 5.21873 11.1453 5.19993 11.1644 5.18402C11.1966 5.15732 11.2392 5.13955 11.2635 5.13757C11.29 5.13542 11.3014 5.13545 11.3124 5.13728C11.3232 5.13907 11.3393 5.14367 11.3698 5.15887C11.3883 5.16813 11.4013 5.17866 11.4192 5.19355C11.4352 5.20676 11.4449 5.21657 11.4528 5.22456C11.4543 5.22612 11.4558 5.22761 11.4572 5.22904L11.4642 5.23604L11.4828 5.28879C11.4828 5.28895 11.4828 5.28914 11.4829 5.28935C11.4832 5.29118 11.4836 5.29385 11.4839 5.29701C11.4842 5.30016 11.4843 5.30305 11.4843 5.30529C11.4844 5.30622 11.4843 5.30684 11.4843 5.30716L11.4731 5.39717L11.5626 5.41643L11.5627 5.41643L11.5627 5.41643L11.5627 5.41643L11.5628 5.41645L11.5632 5.41654L11.5649 5.41692L11.5715 5.41836L11.5934 5.42332C11.6114 5.42748 11.6298 5.43202 11.6403 5.43517L11.6403 5.43517L11.6411 5.4354C11.6688 5.44349 11.7019 5.45799 11.7144 5.46407L11.7912 5.5015L11.8401 5.43141C11.8508 5.41615 11.8721 5.37792 11.8855 5.34052L11.8857 5.33988C11.8906 5.32619 11.8974 5.30741 11.9018 5.28945C11.9053 5.27557 11.9135 5.24053 11.9018 5.20391L11.8862 5.15545L11.8396 5.14009C11.8731 5.12144 11.9067 5.1011 11.9329 5.08348C11.984 5.04922 12.0267 5.01722 12.0817 4.938C12.1134 4.89224 12.1368 4.85714 12.1587 4.80274C12.1654 4.78596 12.1743 4.7629 12.1832 4.73633C12.1832 4.73616 12.1833 4.73598 12.1833 4.73581C12.1951 4.73792 12.2094 4.74119 12.2259 4.74555C12.2566 4.75364 12.2819 4.76356 12.3146 4.78084C12.3381 4.79323 12.3524 4.80137 12.3606 4.80792ZM12.3233 5.66126L12.3835 5.65595C12.3835 5.65595 12.3835 5.65596 12.3835 5.65596L12.3233 5.66126ZM11.694 5.20694L11.6987 5.23537L11.694 5.20694C11.694 5.20694 11.694 5.20694 11.694 5.20694Z" fill="#2D7340" stroke="#1A4927" stroke-width="0.2"/>
<path d="M15.5395 1.3123C15.5397 1.31355 15.5399 1.3148 15.5401 1.31603L15.5395 1.3123ZM15.5395 1.3123C15.5431 1.30943 15.5467 1.3064 15.55 1.30322L15.5351 1.28742M16.2103 1.76299L16.2103 1.76299C16.206 1.77962 16.1996 1.79845 16.1942 1.81001C16.1842 1.83174 16.1755 1.8446 16.168 1.85204C16.1674 1.85263 16.1667 1.85323 16.1661 1.85383C16.0383 1.82449 15.9243 1.84544 15.8417 1.87425C15.7956 1.89031 15.7582 1.90914 15.7321 1.92417C15.7272 1.92694 15.7228 1.92959 15.7187 1.93208C15.7225 1.92555 15.7259 1.91894 15.7289 1.91233C15.7467 1.87269 15.7403 1.83695 15.7313 1.81318L15.7183 1.77918L15.6866 1.76144C15.6669 1.75045 15.6464 1.74095 15.6159 1.73514C15.5912 1.73043 15.5608 1.72843 15.5219 1.72651C15.4812 1.7245 15.4326 1.73002 15.3972 1.73517C15.361 1.74042 15.3291 1.74673 15.3185 1.74936L15.199 1.77908L15.2495 1.88354C15.2498 1.88516 15.25 1.88736 15.2503 1.89019C15.2511 1.90032 15.2514 1.9136 15.251 1.92752C15.2502 1.95302 15.2466 1.97937 15.2442 1.99726C15.244 1.99863 15.2438 1.99995 15.2436 2.00122L15.2357 2.06059L15.2842 2.09564C15.3099 2.11418 15.3287 2.12814 15.3395 2.14074L15.3925 2.20283L15.3953 2.20131L15.3957 2.21838C15.3986 2.34726 15.3618 2.45852 15.2988 2.5137C15.2639 2.54429 15.2204 2.5574 15.1821 2.55153C15.1473 2.54619 15.1027 2.52294 15.0661 2.45144L15.0344 2.38966L14.9655 2.39768C14.8502 2.41109 14.784 2.38006 14.7359 2.35064C14.6947 2.32546 14.6246 2.25729 14.5931 2.19015C14.5612 2.12212 14.532 2.0322 14.5371 1.92976L14.5396 1.88052L14.502 1.84859C14.4658 1.81787 14.4439 1.78583 14.438 1.76846L14.4387 1.76821L14.4333 1.75699C14.4305 1.75125 14.4281 1.74645 14.4261 1.74237C14.4196 1.7291 14.4167 1.7233 14.4142 1.71683C14.412 1.71129 14.4097 1.70413 14.4061 1.68508C14.3991 1.64806 14.4001 1.60379 14.4219 1.55789L14.4411 1.51767L14.424 1.47654C14.4109 1.44513 14.3985 1.40583 14.3935 1.36903C14.3878 1.32633 14.3911 1.29348 14.3946 1.27041C14.401 1.22982 14.4304 1.17973 14.4667 1.13754C14.4995 1.09941 14.5083 1.09062 14.5308 1.08035L14.5308 1.08036L14.5319 1.07985C14.5584 1.06732 14.5672 1.06557 14.5818 1.064L14.6506 1.05659L14.6679 0.98952C14.6765 0.956173 14.6864 0.923221 14.6987 0.89909C14.712 0.873276 14.7286 0.849443 14.7477 0.829272C14.7637 0.812399 14.7832 0.798932 14.8132 0.77817C14.8163 0.776031 14.8195 0.773815 14.8229 0.771511C14.8227 0.771651 14.8227 0.771641 14.8229 0.77149C14.8237 0.771041 14.8267 0.769346 14.8324 0.766716C14.8393 0.763555 14.8478 0.760112 14.8569 0.756938C14.8661 0.753752 14.8748 0.751196 14.8822 0.749497C14.8883 0.748076 14.8916 0.747688 14.8924 0.747592C14.8926 0.747565 14.8927 0.747562 14.8925 0.747565C14.8981 0.747456 14.9106 0.748561 14.9275 0.752623C14.944 0.756566 14.9598 0.76218 14.972 0.768203C14.9844 0.774358 15.0022 0.78713 15.0199 0.801886C15.028 0.808662 15.035 0.814865 15.0399 0.819329L15.0453 0.824412L15.0465 0.825596L15.0466 0.825706L15.0467 0.82572L15.0467 0.825733L15.0467 0.825756L15.0467 0.825786L15.0467 0.825793L15.0949 0.872966L15.1568 0.845856C15.1778 0.836634 15.2025 0.827249 15.2227 0.822298C15.2453 0.816749 15.2784 0.810616 15.3034 0.808944C15.3353 0.806804 15.3582 0.811947 15.3805 0.82299C15.418 0.841524 15.4515 0.873209 15.4632 0.89465C15.4759 0.917924 15.4806 0.928423 15.4834 0.939216C15.4861 0.949746 15.4885 0.966359 15.4869 1.00036C15.486 1.02107 15.4817 1.03719 15.4754 1.05967C15.4698 1.07961 15.4648 1.09245 15.4607 1.1029C15.4599 1.10494 15.4591 1.10689 15.4584 1.10879L15.4548 1.11805L15.4142 1.15642C15.414 1.15651 15.4139 1.15662 15.4137 1.15674C15.4122 1.1578 15.4099 1.15923 15.4071 1.16079C15.4044 1.16234 15.4018 1.16364 15.3997 1.16457C15.3989 1.16496 15.3983 1.16519 15.398 1.16531L15.3112 1.1916L15.33 1.28129L15.33 1.28129L15.33 1.28129L15.33 1.2813L15.33 1.28139L15.3301 1.28182L15.3305 1.28356L15.3319 1.29015L15.3362 1.31216C15.3397 1.33028 15.3431 1.349 15.3445 1.35984L15.3445 1.35984L15.3446 1.36066C15.3485 1.38931 15.3486 1.42537 15.3482 1.43926L15.3452 1.5247L15.4291 1.54091C15.4474 1.54444 15.491 1.5484 15.5306 1.54542L15.5313 1.54537C15.5458 1.54429 15.5657 1.54279 15.5839 1.53957C15.598 1.53707 15.6334 1.53038 15.662 1.50475L15.7 1.47083L15.6951 1.42202C15.7257 1.44502 15.758 1.46744 15.7847 1.48427C15.8368 1.51701 15.8834 1.54306 15.9781 1.56103C16.0328 1.57141 16.0744 1.57859 16.133 1.57645C16.1511 1.57579 16.1757 1.57449 16.2036 1.5718C16.2038 1.57178 16.204 1.57176 16.2042 1.57174C16.207 1.58337 16.2099 1.59778 16.2126 1.61464C16.2177 1.64596 16.2189 1.67306 16.2164 1.71C16.2146 1.73647 16.213 1.75283 16.2103 1.76299ZM15.4155 2.07576L15.4448 2.12864C15.4448 2.12864 15.4448 2.12865 15.4448 2.12865L15.4155 2.07576ZM15.5748 1.31612L15.5508 1.33204L15.5748 1.31612C15.5748 1.31612 15.5748 1.31612 15.5748 1.31612Z" fill="#2D7340" stroke="#1A4927" stroke-width="0.2"/>
<path d="M14.172 4.08801C14.3958 3.84075 14.1481 3.45421 13.8932 3.2391C13.6554 3.0383 13.2827 2.86515 13.071 3.0933C12.8564 3.32438 13.1006 3.74232 13.3293 3.95944C13.5697 4.18774 13.9496 4.33383 14.172 4.08801Z" fill="#FF7600" stroke="#D56E15" stroke-width="0.4"/>
<path d="M17.6202 5.37434C17.5755 5.04388 17.1203 4.98407 16.7916 5.0402C16.4847 5.0926 16.1121 5.26584 16.15 5.57482C16.1884 5.88779 16.6653 5.97052 16.9787 5.93571C17.3082 5.8991 17.6648 5.70287 17.6202 5.37434Z" fill="#FF7600" stroke="#D56E15" stroke-width="0.4"/>
<path d="M15.5968 6.9919C15.5955 6.99225 15.5943 6.99259 15.5931 6.99293L15.5968 6.9919ZM15.5968 6.9919C15.6 6.99516 15.6034 6.99833 15.607 7.00131L15.621 6.98472M15.2242 7.70904L15.2242 7.70904C15.2072 7.70658 15.1878 7.70234 15.1757 7.69833C15.153 7.6908 15.1392 7.68357 15.131 7.67697C15.1303 7.67644 15.1297 7.67587 15.129 7.67526C15.1438 7.54504 15.1102 7.43407 15.0723 7.3552C15.0511 7.31121 15.0282 7.27621 15.0104 7.2519C15.0071 7.24742 15.0039 7.24328 15.001 7.2395C15.0079 7.24253 15.0149 7.24523 15.0218 7.24744C15.0632 7.26071 15.098 7.25031 15.1206 7.23866L15.1529 7.222L15.167 7.18846C15.1757 7.1677 15.1828 7.14625 15.1852 7.1153C15.1871 7.09016 15.1857 7.05978 15.1832 7.02088C15.1806 6.98021 15.1697 6.93258 15.1606 6.89794C15.1513 6.86259 15.1415 6.83158 15.1377 6.82137L15.0947 6.7059L14.9966 6.76787C14.995 6.76827 14.9929 6.76878 14.9901 6.76934C14.9801 6.77135 14.9669 6.77312 14.9531 6.77424C14.9276 6.77628 14.901 6.77569 14.883 6.7753C14.8816 6.77527 14.8803 6.77524 14.879 6.77521L14.8191 6.77394L14.7897 6.82616C14.7742 6.85377 14.7624 6.87398 14.7511 6.88609L14.6954 6.9458L14.6972 6.94836L14.6803 6.95065C14.5525 6.96798 14.4378 6.94399 14.3759 6.88754C14.3416 6.85625 14.3237 6.81454 14.3253 6.77586C14.3267 6.74064 14.3448 6.69368 14.4117 6.64928L14.4695 6.61092L14.4538 6.54331C14.4276 6.43025 14.451 6.36094 14.4748 6.30987C14.4952 6.26615 14.5551 6.18878 14.6182 6.14999C14.6823 6.1107 14.7683 6.07155 14.8707 6.06512L14.9199 6.06203L14.9474 6.02111C14.9739 5.98174 15.0033 5.95639 15.0199 5.94853L15.0202 5.94923L15.0307 5.94254C15.0361 5.93911 15.0406 5.93624 15.0445 5.93378C15.0569 5.92582 15.0624 5.92234 15.0685 5.91909C15.0738 5.91632 15.0806 5.91321 15.0991 5.90748C15.1351 5.89637 15.1792 5.89241 15.2273 5.90895L15.2694 5.92344L15.3084 5.90182C15.3381 5.88531 15.3758 5.86855 15.4118 5.8595C15.4536 5.849 15.4866 5.84858 15.5099 5.84956C15.5509 5.85128 15.604 5.87493 15.65 5.90624C15.6916 5.93454 15.7013 5.94236 15.714 5.9635L15.714 5.9635L15.7147 5.96453C15.7301 5.98948 15.7328 5.99805 15.736 6.01234L15.7511 6.07993L15.8197 6.08957C15.8538 6.09437 15.8876 6.10047 15.913 6.11006C15.9401 6.12032 15.9657 6.13418 15.9879 6.15088C16.0064 6.16484 16.022 6.18271 16.046 6.21026C16.0485 6.21309 16.051 6.21603 16.0537 6.21908C16.0536 6.2189 16.0536 6.21892 16.0537 6.21916C16.0543 6.21989 16.0563 6.22264 16.0595 6.22803C16.0635 6.2345 16.0678 6.24258 16.072 6.2513C16.0762 6.26005 16.0797 6.26845 16.0822 6.27554C16.0843 6.28147 16.0851 6.2847 16.0853 6.2855C16.0853 6.28572 16.0853 6.28575 16.0853 6.2856C16.0861 6.29114 16.0864 6.30372 16.0842 6.32098C16.0822 6.33774 16.0784 6.35415 16.0737 6.36691C16.069 6.37995 16.0583 6.39905 16.0456 6.4183C16.0398 6.42714 16.0344 6.43474 16.0306 6.44007L16.0261 6.44605L16.0251 6.44741L16.025 6.44754L16.025 6.44755L16.025 6.44757L16.0249 6.44759L16.0249 6.44763L16.0249 6.44763L15.9834 6.50079L16.0173 6.55921C16.0288 6.57909 16.0409 6.60259 16.0481 6.6221C16.0562 6.64397 16.066 6.67612 16.0704 6.70075C16.0762 6.73228 16.0736 6.75557 16.0651 6.779C16.0509 6.81831 16.0232 6.8552 16.0032 6.86923C15.9815 6.88447 15.9716 6.89026 15.9612 6.89425C15.951 6.89814 15.9348 6.90234 15.9008 6.90466C15.8802 6.90606 15.8636 6.90355 15.8406 6.89982C15.8202 6.89651 15.8068 6.89295 15.796 6.89005C15.7939 6.88949 15.7919 6.88895 15.7899 6.88844L15.7803 6.88596L15.7376 6.84986C15.7375 6.84974 15.7374 6.84959 15.7372 6.84943C15.736 6.84802 15.7343 6.84592 15.7325 6.84334C15.7306 6.84078 15.729 6.83835 15.7279 6.83643C15.7274 6.83563 15.7271 6.83509 15.7269 6.83481L15.6911 6.75149L15.6041 6.78025L15.6041 6.78026L15.6041 6.78026L15.6041 6.78026L15.604 6.78029L15.6036 6.78042L15.6019 6.78098L15.5955 6.78306L15.5741 6.78987C15.5565 6.79539 15.5383 6.80083 15.5276 6.80342L15.5276 6.80341L15.5268 6.80362C15.4988 6.8107 15.463 6.81492 15.4491 6.816L15.3639 6.82265L15.3572 6.90787C15.3558 6.92642 15.3567 6.97019 15.3641 7.00922L15.3642 7.00988C15.367 7.02417 15.3707 7.04377 15.3759 7.0615C15.38 7.07522 15.3906 7.10962 15.4193 7.13524L15.4573 7.16915L15.5052 7.1588C15.4858 7.19182 15.4671 7.22637 15.4534 7.25486C15.4267 7.31027 15.4061 7.35951 15.3988 7.45564C15.3947 7.51115 15.3922 7.5533 15.4009 7.61128C15.4036 7.62917 15.4076 7.65353 15.4134 7.68093C15.4135 7.68111 15.4135 7.68129 15.4136 7.68147C15.4023 7.68562 15.3883 7.69004 15.3719 7.69465C15.3413 7.70322 15.3145 7.70744 15.2775 7.70912C15.251 7.71032 15.2346 7.71054 15.2242 7.70904ZM14.8242 6.95434L14.775 6.98942C14.775 6.98942 14.775 6.98942 14.7749 6.98941L14.8242 6.95434ZM15.5969 7.0274L15.5784 7.0053L15.5969 7.0274C15.5969 7.0274 15.5969 7.0274 15.5969 7.0274Z" fill="#2D7340" stroke="#1A4927" stroke-width="0.2"/>
<path d="M12.7879 1.68308C12.7801 1.47295 12.9608 1.29817 13.171 1.30462C13.3749 1.31087 13.5388 1.47918 13.5312 1.68308C13.5238 1.87939 13.3673 2.02818 13.171 2.0342C12.9681 2.04041 12.7955 1.88586 12.7879 1.68308Z" fill="#34BE59" stroke="#2D7340" stroke-width="0.2"/>
<path d="M13.4476 5.03526C13.4398 4.82512 13.6205 4.65034 13.8307 4.65679C14.0346 4.66304 14.1985 4.83135 14.1909 5.03526C14.1835 5.23157 14.027 5.38036 13.8307 5.38637C13.6278 5.39258 13.4552 5.23803 13.4476 5.03526Z" fill="#34BE59" stroke="#2D7340" stroke-width="0.2"/>
<path d="M16.0192 3.88584C16.0113 3.67571 16.192 3.50093 16.4022 3.50737C16.6062 3.51363 16.7701 3.68194 16.7624 3.88584C16.7551 4.08215 16.5986 4.23094 16.4022 4.23695C16.1994 4.24317 16.0268 4.08861 16.0192 3.88584Z" fill="#34BE59" stroke="#2D7340" stroke-width="0.2"/>
</svg>
