<svg width="15" height="15" viewBox="0 0 15 15" fill="none" xmlns="http://www.w3.org/2000/svg">
<g id="Frame">
<path id="Vector" d="M3.30813 5.80812C3.42533 5.69095 3.58427 5.62512 3.75 5.62512C3.91573 5.62512 4.07467 5.69095 4.19187 5.80812L7.5 9.11624L10.8081 5.80812C10.8658 5.74842 10.9347 5.70081 11.011 5.66805C11.0872 5.6353 11.1693 5.61805 11.2522 5.61733C11.3352 5.61661 11.4175 5.63243 11.4943 5.66385C11.5712 5.69528 11.6409 5.74169 11.6996 5.80037C11.7583 5.85905 11.8047 5.92883 11.8361 6.00564C11.8676 6.08245 11.8834 6.16475 11.8827 6.24774C11.8819 6.33073 11.8647 6.41274 11.8319 6.48899C11.7992 6.56525 11.7516 6.63421 11.6919 6.69186L7.94187 10.4419C7.82467 10.559 7.66573 10.6249 7.5 10.6249C7.33427 10.6249 7.17533 10.559 7.05813 10.4419L3.30813 6.69186C3.19096 6.57466 3.12513 6.41572 3.12513 6.24999C3.12513 6.08426 3.19096 5.92532 3.30813 5.80812Z" fill="#9D8380"/>
</g>
</svg>
