<svg width="14" height="23" viewBox="0 0 14 23" fill="none" xmlns="http://www.w3.org/2000/svg">
<path d="M2.56727 20.3636L1.5283 19.3571L0.519531 20.3636L1.5283 21.5L2.56727 20.3636Z" fill="white"/>
<path d="M5.48933 20.3636L4.5153 19.3571L3.52194 20.3636L4.5153 21.5L5.48933 20.3636Z" fill="white"/>
<path d="M8.08673 20.3636L7.14517 19.3571L6.13868 20.3636L7.14517 21.5L8.08673 20.3636Z" fill="white"/>
<path d="M11.5223 20.3636L12.5107 19.3571L13.4805 20.3636L12.5107 21.5L11.5223 20.3636Z" fill="white"/>
<path d="M10.7029 20.3636L9.77504 19.3571L8.79453 20.3636L9.77504 21.5L10.7029 20.3636Z" fill="white"/>
<path d="M1.5283 3.64289L2.56727 2.63638L1.5283 1.5L0.519531 2.63638L1.5283 3.64289ZM1.5283 3.64289V4.84415H3.18413V6.58659M4.5153 3.64289L5.48933 2.63638L4.5153 1.5L3.52194 2.63638L4.5153 3.64289ZM4.5153 3.64289V6.58659M7.14517 3.64289L8.08673 2.63638L7.14517 1.5L6.13868 2.63638L7.14517 3.64289ZM7.14517 3.64289V6.58659M9.77504 3.64289L10.7029 2.63638L9.77504 1.5L8.79453 2.63638L9.77504 3.64289ZM9.77504 3.64289L9.77505 6.58659M12.5107 3.64289V4.84415H11.0088V6.58659M12.5107 3.64289L11.5223 2.63638L12.5107 1.5L13.4805 2.63638L12.5107 3.64289ZM1.5283 19.3571L2.56727 20.3636L1.5283 21.5L0.519531 20.3636L1.5283 19.3571ZM1.5283 19.3571V18.1558H3.18413V16.4026M4.5153 19.3571L5.48933 20.3636L4.5153 21.5L3.52194 20.3636L4.5153 19.3571ZM4.5153 19.3571V16.4026M7.14517 19.3571L8.08673 20.3636L7.14517 21.5L6.13868 20.3636L7.14517 19.3571ZM7.14517 19.3571V16.4026M12.5107 19.3571V18.1558H11.0088V16.4026M12.5107 19.3571L11.5223 20.3636L12.5107 21.5L13.4805 20.3636L12.5107 19.3571ZM9.77504 19.3571L10.7029 20.3636L9.77504 21.5L8.79453 20.3636L9.77504 19.3571ZM9.77504 19.3571L9.77505 16.4026" stroke="#2A3770" stroke-width="0.7" stroke-linecap="square"/>
<path d="M12.1776 8.77274C12.1776 6.88962 11.0088 6.59741 11.0088 6.59741H9.77505H7.14518H4.51531H3.18414C3.18414 6.59741 2.17764 6.88962 2.17764 8.77274V14.8117C2.17764 16.4026 3.18414 16.4026 3.18414 16.4026H4.51531H7.09648H11.0088C11.0088 16.4026 12.1776 16.1429 12.1776 14.552V8.77274Z" fill="#C7CCDB" stroke="#2A3770" stroke-width="0.8" stroke-linecap="square"/>
<path d="M4.37015 13.5195V9.48053C4.37015 8.92825 4.81786 8.48053 5.37015 8.48053H9.15579C9.70807 8.48053 10.1558 8.92825 10.1558 9.48053V13.5195C10.1558 14.0718 9.70807 14.5195 9.15579 14.5195H5.37015C4.81786 14.5195 4.37015 14.0718 4.37015 13.5195Z" fill="#E1E5EE" stroke="#2A3770" stroke-width="0.7" stroke-linecap="square"/>
</svg>
