<svg width="18" height="21" viewBox="0 0 18 21" fill="none" xmlns="http://www.w3.org/2000/svg">
<path d="M9.93472 5.23606C9.52613 5.61573 8.94189 5.94515 7.97959 5.51445C8.29747 5.90348 8.87013 6.43931 9.66287 6.52892C10.7624 6.65321 12.4897 6.33376 12.4897 6.33376C12.4897 5.67061 11.7783 5.5958 11.5159 5.10084C11.4157 4.91186 11.5003 4.68766 11.3079 4.59419C11.1274 4.50651 11.0062 4.64146 10.8068 4.64146C10.6407 4.64146 10.5448 4.56399 10.3719 4.59419C10.0732 4.64636 10.1569 5.0296 9.93472 5.23606Z" fill="#B99389"/>
<path d="M7.69006 5.10084C7.69006 5.10084 8.39498 6.38561 9.66287 6.52892C10.7624 6.65321 12.4897 6.33376 12.4897 6.33376C12.4897 5.67061 11.7783 5.5958 11.5159 5.10084C11.4157 4.91186 11.5003 4.68766 11.3079 4.59419C11.1274 4.50651 11.0062 4.64146 10.8068 4.64146C10.6407 4.64146 10.5448 4.56399 10.3719 4.59419C10.0732 4.64636 10.1569 5.0296 9.93472 5.23606C9.52613 5.61573 8.94189 5.94515 7.97959 5.51445" stroke="#9D8380" stroke-width="0.3" stroke-linecap="round" stroke-linejoin="round"/>
<path d="M10.9534 5.07676C10.9498 5.00244 11.0003 4.93954 11.074 4.9293C11.1452 4.91942 11.2077 4.96096 11.2282 5.02986C11.252 5.10991 11.1969 5.19875 11.1142 5.21082C11.0333 5.22264 10.9573 5.15844 10.9534 5.07676Z" fill="black" stroke="black" stroke-width="0.1" stroke-linecap="round" stroke-linejoin="round"/>
<path d="M11.0897 5.02507C11.1478 4.99623 11.2124 4.97 11.2084 5.04482C11.2052 5.10424 11.1491 5.17441 11.0897 5.17217C11.0327 5.17002 10.9853 5.13018 10.9823 5.07323C10.981 5.05011 11.0485 5.04548 11.0897 5.02507Z" fill="#524437" fill-opacity="0.8" stroke="white" stroke-width="0.06"/>
<path d="M11.6474 5.21222C11.6474 5.21222 11.8521 5.4359 11.8343 5.60476C11.8197 5.7438 11.6474 5.91009 11.6474 5.91009" stroke="#9D8380" stroke-width="0.1" stroke-linecap="round" stroke-linejoin="round"/>
<path d="M4.22412 8.99182C3.69428 8.80873 3.20842 8.3827 3.36339 7.8444C3.47684 7.45032 3.85361 7.28359 4.22412 7.45032C4.44374 7.54915 4.64143 7.69939 4.60274 7.9371C4.57033 8.13626 4.22412 8.28869 4.22412 8.28869C4.22412 8.28869 4.43601 8.47037 4.60274 8.50504C5.24477 8.63855 7.65872 7.66668 7.65872 7.66668C7.65872 7.66668 5.51129 6.447 4.06186 5.8212C2.6212 5.19919 0.275696 4.47548 0.275696 4.47548C0.275696 4.47548 2.18137 4.53024 3.4012 4.71506C4.62104 4.89988 5.34242 5.06325 6.52287 5.42202C6.45869 4.44641 6.3981 3.96493 6.21856 3.00385C6.03901 2.04277 5.60337 0.5 5.60337 0.5C5.60337 0.5 7.27743 2.58787 7.65872 5.07044C7.65872 5.07044 8.36364 6.35521 9.63152 6.49852C10.7311 6.62281 12.4583 6.30337 12.4583 6.30337C12.9457 6.67607 17.5731 3.72237 17.5731 3.72237C17.5731 3.72237 14.8388 7.10925 12.3449 7.8444C12.0133 7.94214 11.4845 8.05239 11.4845 8.05239C11.4845 8.05239 11.7228 8.71719 12.0518 8.99182C12.6142 9.46128 13.7175 7.67088 14.8516 7.01737C16.004 6.35337 17.7243 5.75502 17.7243 5.75502C17.7243 5.75502 15.5869 7.31532 14.5491 8.28869C13.5282 9.24624 13.6146 10.4153 12.4583 10.3865C11.7013 10.3677 10.7755 9.42325 10.7755 9.42325C10.7755 9.42325 11.1034 10.5109 11.4845 11.1193C11.9883 11.9234 13.1876 12.8521 13.1876 12.8521C13.1876 12.8521 11.5836 12.2403 10.7755 11.5337C10.1098 10.9516 9.36409 9.76316 9.36409 9.76316C9.36409 9.76316 8.46362 10.2261 8.04563 10.6996C7.19677 11.661 7.25852 13.8881 7.25852 13.8881C7.25852 13.8881 6.66688 11.3165 7.25852 9.85815C7.48167 9.30811 7.94378 8.71247 8.40143 8.20935C6.58477 9.51966 4.72333 9.16433 4.22412 8.99182Z" fill="black"/>
<path d="M4.22412 8.28869C4.22412 8.28869 4.57033 8.13626 4.60274 7.9371C4.64143 7.69939 4.44374 7.54915 4.22412 7.45032C3.85361 7.28359 3.47684 7.45032 3.36339 7.8444C3.20842 8.3827 3.69428 8.80873 4.22412 8.99182C4.72333 9.16433 6.58477 9.51966 8.40143 8.20935M4.22412 8.28869L4.06186 7.9371M4.22412 8.28869C4.22412 8.28869 4.43601 8.47037 4.60274 8.50504C5.24477 8.63855 7.65872 7.66668 7.65872 7.66668C7.65872 7.66668 5.51129 6.447 4.06186 5.8212C2.6212 5.19919 0.275696 4.47548 0.275696 4.47548C0.275696 4.47548 2.18137 4.53024 3.4012 4.71506C4.62104 4.89988 5.34242 5.06325 6.52287 5.42202M6.52287 5.42202C6.45869 4.44641 6.3981 3.96493 6.21856 3.00385C6.03901 2.04277 5.60337 0.5 5.60337 0.5C5.60337 0.5 7.27743 2.58787 7.65872 5.07044C7.65872 5.07044 8.36364 6.35521 9.63152 6.49852C10.7311 6.62281 12.4583 6.30337 12.4583 6.30337C12.9457 6.67607 17.5731 3.72237 17.5731 3.72237C17.5731 3.72237 14.8388 7.10925 12.3449 7.8444C12.0133 7.94214 11.4845 8.05239 11.4845 8.05239C11.4845 8.05239 11.7228 8.71719 12.0518 8.99182C12.6142 9.46128 13.7175 7.67088 14.8516 7.01737C16.004 6.35337 17.7243 5.75502 17.7243 5.75502C17.7243 5.75502 15.5869 7.31532 14.5491 8.28869C13.5282 9.24624 13.6146 10.4153 12.4583 10.3865C11.7013 10.3677 10.7755 9.42325 10.7755 9.42325M6.52287 5.42202C6.78135 5.94219 7.02002 6.21617 7.49983 6.54355C8.20427 7.02419 9.63152 7.01737 9.63152 7.01737C9.2353 7.51795 8.81955 7.90777 8.40143 8.20935M10.7755 9.42325L10.2177 7.66668M10.7755 9.42325C10.7755 9.42325 11.1034 10.5109 11.4845 11.1193C11.9883 11.9234 13.1876 12.8521 13.1876 12.8521C13.1876 12.8521 11.5836 12.2403 10.7755 11.5337M10.7755 11.5337C10.1098 10.9516 9.36409 9.76316 9.36409 9.76316C9.36409 9.76316 8.46362 10.2261 8.04563 10.6996C7.19677 11.661 7.25852 13.8881 7.25852 13.8881C7.25852 13.8881 6.66688 11.3165 7.25852 9.85815C7.48167 9.30811 7.94378 8.71247 8.40143 8.20935M10.7755 11.5337C10.7755 11.5337 9.98055 10.3109 9.91537 9.42325C9.89828 9.19067 9.92658 8.91676 9.97177 8.65532" stroke="#9D8380" stroke-width="0.3" stroke-linecap="round" stroke-linejoin="round"/>
<path d="M2.64567 19.7486L1.95871 19.0831L1.29172 19.7486L1.95871 20.5L2.64567 19.7486Z" fill="white"/>
<path d="M4.57772 19.7486L3.9337 19.0831L3.27689 19.7486L3.9337 20.5L4.57772 19.7486Z" fill="white"/>
<path d="M6.29511 19.7486L5.67255 19.0831L5.00707 19.7486L5.67255 20.5L6.29511 19.7486Z" fill="white"/>
<path d="M8.56672 19.7486L9.22024 19.0831L9.86143 19.7486L9.22024 20.5L8.56672 19.7486Z" fill="white"/>
<path d="M8.02491 19.7486L7.41141 19.0831L6.7631 19.7486L7.41141 20.5L8.02491 19.7486Z" fill="white"/>
<path d="M1.95871 8.69299L2.64567 8.02749L1.95871 7.27612L1.29172 8.02749L1.95871 8.69299ZM1.95871 8.69299V9.48726H3.05354V10.6393M3.9337 8.69299L4.57772 8.02749L3.9337 7.27612L3.27689 8.02749L3.9337 8.69299ZM3.9337 8.69299V10.6393M5.67255 8.69299L6.29511 8.02749L5.67255 7.27612L5.00707 8.02749L5.67255 8.69299ZM5.67255 8.69299V10.6393M7.41141 8.69299L8.02491 8.02749L7.41141 7.27612L6.7631 8.02749L7.41141 8.69299ZM7.41141 8.69299L7.41141 10.6393M9.22024 8.69299V9.48726H8.22717V10.6393M9.22024 8.69299L8.56672 8.02749L9.22024 7.27612L9.86143 8.02749L9.22024 8.69299ZM1.95871 19.0831L2.64567 19.7486L1.95871 20.5L1.29172 19.7486L1.95871 19.0831ZM1.95871 19.0831V18.2889H3.05354V17.1296M3.9337 19.0831L4.57772 19.7486L3.9337 20.5L3.27689 19.7486L3.9337 19.0831ZM3.9337 19.0831V17.1296M5.67255 19.0831L6.29511 19.7486L5.67255 20.5L5.00707 19.7486L5.67255 19.0831ZM5.67255 19.0831V17.1296M9.22024 19.0831V18.2889H8.22717V17.1296M9.22024 19.0831L8.56672 19.7486L9.22024 20.5L9.86143 19.7486L9.22024 19.0831ZM7.41141 19.0831L8.02491 19.7486L7.41141 20.5L6.7631 19.7486L7.41141 19.0831ZM7.41141 19.0831L7.41141 17.1296" stroke="#2A3770" stroke-width="0.5" stroke-linecap="square"/>
<path d="M9.00001 12.0848C9.00001 10.8397 8.22718 10.6465 8.22718 10.6465H7.41142H5.67257H3.93371H3.05355C3.05355 10.6465 2.38806 10.8397 2.38806 12.0848V16.0777C2.38806 17.1296 3.05355 17.1296 3.05355 17.1296H3.93371H5.64037H8.22718C8.22718 17.1296 9.00001 16.9579 9.00001 15.906V12.0848Z" fill="#C7CCDB" stroke="#2A3770" stroke-width="0.6" stroke-linecap="square"/>
<path d="M3.64056 15.0314V12.7447C3.64056 12.1924 4.08828 11.7447 4.64056 11.7447H6.74748C7.29976 11.7447 7.74748 12.1924 7.74748 12.7447V15.0314C7.74748 15.5837 7.29976 16.0314 6.74748 16.0314H4.64056C4.08828 16.0314 3.64056 15.5837 3.64056 15.0314Z" fill="#E1E5EE" stroke="#2A3770" stroke-width="0.5" stroke-linecap="square"/>
<path d="M6.83097 13.7565V14.9671C6.83097 15.0776 6.74143 15.1671 6.63097 15.1671H4.7571C4.64664 15.1671 4.5571 15.0776 4.5571 14.9671V13.7565C4.5571 13.646 4.64664 13.5565 4.7571 13.5565H5.10188V12.809C5.10188 12.6986 5.19142 12.609 5.30188 12.609H6.09226C6.20272 12.609 6.29226 12.6986 6.29226 12.809V13.5565H6.63097C6.74143 13.5565 6.83097 13.646 6.83097 13.7565Z" fill="#E1E5EE"/>
<path d="M5.10188 13.5565H4.7571C4.64664 13.5565 4.5571 13.646 4.5571 13.7565V14.9671C4.5571 15.0776 4.64664 15.1671 4.7571 15.1671H6.63097C6.74143 15.1671 6.83097 15.0776 6.83097 14.9671V13.7565C6.83097 13.646 6.74143 13.5565 6.63097 13.5565H6.29226M5.10188 13.5565V12.809C5.10188 12.6986 5.19142 12.609 5.30188 12.609H6.09226C6.20272 12.609 6.29226 12.6986 6.29226 12.809V13.5565M5.10188 13.5565H6.29226M5.72779 14.2163V14.5332" stroke="#2A3770" stroke-width="0.4" stroke-linecap="square"/>
</svg>
