<svg width="21" height="21" viewBox="0 0 21 21" fill="none" xmlns="http://www.w3.org/2000/svg">
<g clip-path="url(#clip0_744_16993)">
<path d="M16.1742 8.98541C13.4353 8.98541 11.3687 10.0299 11.3687 11.4187V18.2576C11.3687 19.6465 13.4353 20.691 16.1742 20.691C18.9131 20.691 20.9798 19.6465 20.9798 18.2576V11.4187C20.9798 10.0299 18.9131 8.98541 16.1742 8.98541ZM19.8687 13.2465C19.3964 13.8021 17.9687 14.3576 16.1742 14.3576C15.4236 14.3654 14.6756 14.2682 13.952 14.0687V14.8799C14.6791 15.0583 15.4255 15.146 16.1742 15.141C17.4616 15.1932 18.7388 14.8936 19.8687 14.2743V16.0076C19.3964 16.5632 17.9687 17.1187 16.1742 17.1187C15.4234 17.1247 14.6754 17.0256 13.952 16.8243V17.6354C14.6791 17.8138 15.4255 17.9015 16.1742 17.8965C17.4616 17.9487 18.7388 17.6491 19.8687 17.0299V18.3021C19.8687 18.8299 18.3964 19.6243 16.1742 19.6243C13.952 19.6243 12.4798 18.8299 12.4798 18.3021V11.4187C12.4798 10.891 13.952 10.0965 16.1742 10.0965C18.3964 10.0965 19.8687 10.891 19.8687 11.4187V13.2465Z" fill="black"/>
<path d="M8.71219 12.6657L9.67266 13.3657L9.64581 12.1763L6.86016 6.8839C6.58454 7.10812 6.2688 7.2815 5.93514 7.39545L8.71219 12.6657Z" fill="black"/>
<path d="M7.96814 5.15775C7.88661 5.50078 7.74421 5.83164 7.54021 6.13532L13.0747 8.40224L14.2684 8.30737L13.4869 7.41036L7.96814 5.15775Z" fill="black"/>
<path d="M6.31106 2.81824C5.57832 2.1525 4.50562 2.09839 3.71665 2.61849L2.87361 1.85253L2.15776 2.64043L3.0008 3.40638C2.55851 4.24146 2.71492 5.30407 3.44767 5.96981C4.31435 6.75724 5.66772 6.6924 6.45515 5.82572C7.24258 4.95904 7.17774 3.60567 6.31106 2.81824ZM5.66726 5.10987C5.27354 5.54321 4.59686 5.57563 4.16351 5.18192C3.73017 4.7882 3.69775 4.11152 4.09147 3.67817C4.48518 3.24483 5.16187 3.21241 5.59521 3.60613C6.02855 3.99985 6.06097 4.67653 5.66726 5.10987Z" fill="black"/>
</g>
<defs>
<clipPath id="clip0_744_16993">
<rect width="20" height="20" fill="white" transform="translate(0.979736 0.690979)"/>
</clipPath>
</defs>
</svg>
