<svg width="20" height="21" viewBox="0 0 20 21" fill="none" xmlns="http://www.w3.org/2000/svg">
<g id="Frame" clip-path="url(#clip0_275_177)">
<path id="Vector" d="M13.9167 7.16667C13.7508 6.69603 13.4479 6.2858 13.0469 5.98878C12.6459 5.69176 12.1652 5.52153 11.6667 5.5H8.33334C7.6703 5.5 7.03442 5.76339 6.56558 6.23223C6.09674 6.70107 5.83334 7.33696 5.83334 8C5.83334 8.66304 6.09674 9.29893 6.56558 9.76777C7.03442 10.2366 7.6703 10.5 8.33334 10.5H11.6667C12.3297 10.5 12.9656 10.7634 13.4344 11.2322C13.9033 11.7011 14.1667 12.337 14.1667 13C14.1667 13.663 13.9033 14.2989 13.4344 14.7678C12.9656 15.2366 12.3297 15.5 11.6667 15.5H8.33334C7.8348 15.4785 7.3541 15.3082 6.95312 15.0112C6.55214 14.7142 6.24922 14.304 6.08334 13.8333" stroke="#9D8380" stroke-width="2" stroke-linecap="round" stroke-linejoin="round"/>
<path id="Vector_2" d="M10 3V5.5M10 15.5V18" stroke="#9D8380" stroke-width="2" stroke-linecap="round" stroke-linejoin="round"/>
</g>
<defs>
<clipPath id="clip0_275_177">
<rect width="20" height="20" fill="white" transform="translate(0 0.5)"/>
</clipPath>
</defs>
</svg>
