<svg width="16" height="21" viewBox="0 0 16 21" fill="none" xmlns="http://www.w3.org/2000/svg">
<path d="M8.02295 13.8012H4.3606C2.55362 13.9491 1.21128 15.4592 1.27628 17.2711C1.3388 19.0138 2.61679 20.5 4.3606 20.5C6.91452 20.5 8.02295 19.6325 8.02295 17.2711V13.8012Z" fill="#0ACF83"/>
<path d="M1.27627 10.6687C1.17063 8.8446 2.53837 7.28452 4.36059 7.1506H8.02294V9.41566V12.0181V13.8012H4.36059C2.64842 13.6754 1.37552 12.3826 1.27627 10.6687Z" fill="#A259FF"/>
<path d="M14.7221 10.6687C14.8343 8.91752 13.6581 7.43706 11.9269 7.1506C9.27596 7.1506 8.9868 8.37952 8.02295 9.41566V12.0181C8.02295 12.0181 9.66863 13.8668 11.4931 13.8012C13.2489 13.7381 14.6096 12.4219 14.7221 10.6687Z" fill="#1ABCFE"/>
<path d="M11.4931 0.5C13.0813 1.33996 14.6844 1.98086 14.722 3.77711C14.7579 5.48764 13.6142 6.86788 11.9269 7.1506H7.92684H4.36057C2.81449 6.25838 1.25046 5.56199 1.27625 3.77711C1.30165 2.01983 2.82274 1.35075 4.36057 0.5H7.92684H11.4931Z" fill="#FF7262"/>
<path d="M1.27625 3.77711C1.25046 5.56199 2.81449 6.25838 4.36057 7.1506H7.92684V0.5H4.36057C2.82274 1.35075 1.30165 2.01983 1.27625 3.77711Z" fill="#F24E1E"/>
<path d="M11.9269 7.1506C13.6142 6.86788 14.7579 5.48764 14.722 3.77711C14.6844 1.98086 13.0813 1.33996 11.4931 0.5H4.36059C2.82276 1.35075 1.30166 2.01983 1.27627 3.77711C1.25047 5.56199 2.8145 6.25838 4.36059 7.1506M11.9269 7.1506C8.97205 7.1506 7.3154 7.1506 4.36059 7.1506M11.9269 7.1506C13.6581 7.43706 14.8343 8.91752 14.722 10.6687C14.6096 12.4219 13.2488 13.7381 11.4931 13.8012C9.66862 13.8668 8.02294 12.0181 8.02294 12.0181M11.9269 7.1506C9.27595 7.1506 8.9868 8.37952 8.02294 9.41566M4.36059 7.1506C2.53837 7.28452 1.17063 8.8446 1.27627 10.6687C1.37552 12.3826 2.64842 13.6754 4.36059 13.8012M4.36059 13.8012C5.79082 13.8012 8.02294 13.8012 8.02294 13.8012M4.36059 13.8012C2.55361 13.9491 1.21127 15.4592 1.27627 17.2711C1.33878 19.0138 2.61678 20.5 4.36059 20.5C6.9145 20.5 8.02294 19.6325 8.02294 17.2711V13.8012M8.02294 13.8012V12.0181M8.02294 7.1506C8.02294 7.1506 8.02294 8.72872 8.02294 9.41566M8.02294 12.0181C8.02294 12.0181 8.02294 10.1026 8.02294 9.41566" stroke="black" stroke-linecap="round" stroke-linejoin="round"/>
</svg>
