<svg width="21" height="20" viewBox="0 0 21 20" fill="none" xmlns="http://www.w3.org/2000/svg">
<path d="M17.1047 2.49483C17.0561 1.63643 16.8511 1.26314 16.2631 0.963384C15.6304 0.64075 14.6325 0.790894 13.4582 1.38551C12.9525 1.64174 12.901 1.64696 12.0146 1.53332C10.8364 1.38221 9.31967 1.38274 8.23225 1.5347C7.40992 1.64962 7.35592 1.64388 6.84892 1.38711C5.18217 0.543067 3.86625 0.598293 3.38975 1.53225C3.15192 1.99843 3.10775 3.20809 3.29217 4.20579C3.39442 4.75891 3.38359 4.82797 3.13725 5.19093C1.40417 7.74488 2.65292 11.8847 5.62267 13.4296C5.84992 13.5478 6.04142 13.621 6.1975 13.6806C6.67675 13.8636 6.82225 13.9192 6.64609 14.7615C6.56125 15.1667 6.45909 16.174 6.41892 17.0002C6.34634 18.4935 6.34742 18.5039 6.60934 18.8086C6.96584 19.223 7.47967 19.23 7.82784 18.8252C8.05492 18.5612 8.07709 18.4365 8.07709 17.4179C8.07709 15.9127 8.24209 14.9122 8.63192 14.0548C9.0955 13.0346 8.75184 12.6542 7.69167 12.4262C6.21809 12.1092 5.06717 11.1998 4.42567 9.8455C3.81575 8.55817 3.72384 6.77918 4.8265 5.69723C5.14009 5.32458 5.16192 4.98705 4.938 3.96924C4.85434 3.58883 4.78417 3.09807 4.78209 2.87854C4.77892 2.53186 4.8105 2.47951 5.02342 2.47951C5.15817 2.47951 5.673 2.67552 6.16734 2.91504L6.95634 3.29746C7.02809 3.33222 7.10834 3.34558 7.1875 3.3365C9.19375 3.10622 11.1001 3.10266 13.1162 3.3374C13.1956 3.34665 13.2762 3.33328 13.3482 3.29835L14.1368 2.91568C14.6312 2.67573 15.146 2.47951 15.2807 2.47951C15.5922 2.47951 15.5968 2.70946 15.3129 4.07565C15.1395 4.91003 15.0228 5.09594 15.5242 5.7631C16.2756 6.76313 16.4633 8.00493 16.0604 9.30967C15.5525 10.9538 14.3088 12.0646 12.5602 12.4352C11.5062 12.6586 11.2307 12.9501 11.6332 14.1588C11.95 15.1099 12.1503 15.3551 12.6108 15.3551C13.2303 15.3551 13.6184 14.8184 13.4048 14.2568C13.3107 14.0093 13.3387 13.9829 13.9191 13.7713C15.6907 13.1253 17.0457 11.6776 17.6652 9.76858C18.1441 8.2932 17.9334 6.37283 17.1652 5.21211C16.9037 4.8169 16.8996 4.78338 17.0217 4.02681C17.0907 3.59852 17.1281 2.90919 17.1047 2.49483Z" fill="#DD3C26"/>
<path d="M17.7233 13.2878C17.9786 12.9049 18.496 12.8014 18.8789 13.0568C19.2619 13.312 19.3654 13.8294 19.1101 14.2123C18.9216 14.4951 18.6961 14.7273 18.5046 14.9188C18.4693 14.9541 18.435 14.9882 18.4015 15.0214C18.2412 15.1807 18.0995 15.3214 17.9573 15.4884C17.6427 15.8577 17.3289 16.355 17.1505 17.2468C17.0711 17.6441 16.7855 17.8581 16.6273 17.9516C16.4557 18.0529 16.2682 18.1127 16.114 18.1516C15.7984 18.2312 15.4153 18.2725 15.0517 18.2966C14.6525 18.3231 14.2201 18.3317 13.8333 18.334C13.8331 18.7939 13.4601 19.1667 13 19.1667C12.5398 19.1667 12.1667 18.7937 12.1667 18.3334V17.5001C12.1667 17.0398 12.5398 16.6667 13 16.6667C13.0786 16.6667 13.1636 16.667 13.2536 16.6673C13.7426 16.6688 14.3801 16.6708 14.9415 16.6336C15.2122 16.6157 15.4348 16.5903 15.598 16.5592C15.8493 15.5726 16.2553 14.9162 16.6886 14.4076C16.8801 14.1828 17.0784 13.9862 17.2397 13.8262C17.2699 13.7963 17.2988 13.7676 17.3261 13.7403C17.5123 13.5542 17.634 13.4218 17.7233 13.2878Z" fill="#DD3C26"/>
</svg>
