<svg width="21" height="20" viewBox="0 0 21 20" fill="none" xmlns="http://www.w3.org/2000/svg">
<g clip-path="url(#clip0_677_24)">
<path d="M15.5 3.33334H5.49999C4.57952 3.33334 3.83333 4.07953 3.83333 5V15C3.83333 15.9205 4.57952 16.6667 5.49999 16.6667H15.5C16.4205 16.6667 17.1667 15.9205 17.1667 15V5C17.1667 4.07953 16.4205 3.33334 15.5 3.33334Z" stroke="#DD3C26" stroke-width="1.5" stroke-linecap="round" stroke-linejoin="round"/>
<path d="M7.16667 9.16666V13.3333" stroke="#DD3C26" stroke-width="1.5" stroke-linecap="round" stroke-linejoin="round"/>
<path d="M7.16667 6.66666V6.675" stroke="#DD3C26" stroke-width="1.5" stroke-linecap="round" stroke-linejoin="round"/>
<path d="M10.5 13.3333V9.16666" stroke="#DD3C26" stroke-width="1.5" stroke-linecap="round" stroke-linejoin="round"/>
<path d="M13.8333 13.3333V10.8333C13.8333 10.3913 13.6577 9.96738 13.3452 9.65482C13.0326 9.34226 12.6087 9.16666 12.1667 9.16666C11.7246 9.16666 11.3007 9.34226 10.9882 9.65482C10.6756 9.96738 10.5 10.3913 10.5 10.8333" stroke="#DD3C26" stroke-width="1.5" stroke-linecap="round" stroke-linejoin="round"/>
</g>
<defs>
<clipPath id="clip0_677_24">
<rect width="20" height="20" fill="white" transform="translate(0.5)"/>
</clipPath>
</defs>
</svg>
