<svg width="14" height="21" viewBox="0 0 14 21" fill="none" xmlns="http://www.w3.org/2000/svg">
<path d="M6.99998 16.6513V20.5M6.99998 20.5H3.3107M6.99998 20.5H10.4604" stroke="black" stroke-linecap="round"/>
<path d="M6.99998 5.11842V0.5M6.99998 0.5H3.21545M6.99998 0.5H10.7845" stroke="black" stroke-linecap="round" stroke-linejoin="round"/>
<path d="M13.6069 12.6127V6.11841C13.6069 5.56612 13.1592 5.11841 12.6069 5.11841H6.99999H1.3931C0.840812 5.11841 0.393097 5.56612 0.393097 6.11841V12.6127C0.393097 13.165 0.840811 13.6127 1.3931 13.6127H12.6069C13.1592 13.6127 13.6069 13.165 13.6069 12.6127Z" fill="#6596FF"/>
<path d="M13.6069 16.6514V13.6127H0.393097V16.6514H6.99999H13.6069Z" fill="#E7A1A1"/>
<path d="M13.6069 13.3452V6.11841C13.6069 5.56612 13.1592 5.11841 12.6069 5.11841H6.99999H1.3931C0.840812 5.11841 0.393097 5.56612 0.393097 6.11841V13.3452M13.6069 13.3452V15.6513C13.6069 16.2036 13.1592 16.6513 12.6069 16.6513H6.99999H1.3931C0.840811 16.6513 0.393097 16.2036 0.393097 15.6513V13.3452M13.6069 13.3452H0.393097" stroke="black" stroke-width="0.8"/>
</svg>
