<svg width="21" height="22" viewBox="0 0 21 22" fill="none" xmlns="http://www.w3.org/2000/svg">
<g clip-path="url(#clip0_744_16948)">
<path d="M6.78763 5.05946C4.26447 9.58074 5.88427 15.2914 10.4055 17.8145L11.6335 18.4998C12.3117 18.8783 13.1683 18.6353 13.5468 17.9571L13.9645 17.2085C14.1218 16.9268 14.0671 16.5742 13.8319 16.3534L11.7547 14.4027C11.5484 14.209 11.2462 14.1578 10.9877 14.2727L10.0642 14.6832C9.79618 14.8024 9.47983 14.7447 9.28849 14.5223C7.85262 12.854 7.21943 10.6217 7.5655 8.44788C7.61161 8.15821 7.85055 7.94298 8.14121 7.90365L9.14273 7.76814C9.42307 7.73021 9.65338 7.52796 9.72721 7.25487L10.4709 4.50405C10.5551 4.19259 10.4165 3.86379 10.1348 3.70656L9.38618 3.2888C8.70799 2.91033 7.85139 3.1533 7.47292 3.83149L6.78763 5.05946Z" stroke="#DD3C26" stroke-linecap="round" stroke-linejoin="round"/>
</g>
<defs>
<clipPath id="clip0_744_16948">
<rect width="15" height="15" fill="white" transform="translate(7.61548 0.690277) rotate(29.1642)"/>
</clipPath>
</defs>
</svg>
