<svg width="21" height="23" viewBox="0 0 21 23" fill="none" xmlns="http://www.w3.org/2000/svg">
<path d="M20.8833 13.9477C20.8713 13.9108 20.8546 13.8756 20.8337 13.8428C20.7113 13.6109 20.4137 13.5417 19.9462 13.6383C18.4896 13.9388 17.9256 13.7539 17.7211 13.6215C18.9034 11.817 19.8752 9.63754 20.4004 7.60443C20.6395 6.67875 21.1036 4.50001 20.508 3.43583C20.47 3.36299 20.4255 3.2937 20.3751 3.22879C19.2391 1.77724 17.5719 0.998596 15.5537 0.977187C14.2368 0.963267 13.1128 1.28211 12.8083 1.39954C12.6575 1.3714 12.506 1.34743 12.3538 1.32765C11.9724 1.25859 11.586 1.22093 11.1985 1.21506C10.1569 1.19885 9.25688 1.44782 8.51154 1.95564C7.75625 1.67275 4.29255 0.506374 2.14896 2.02506C0.951747 2.87322 0.399087 4.38917 0.506219 6.53092C0.542252 7.25158 0.952804 9.46821 1.6007 11.5911C2.00579 12.9183 2.42771 13.9715 2.86355 14.7469C3.35075 15.6228 3.85548 16.1506 4.37387 16.3235C4.76803 16.4548 5.37179 16.4504 6.01088 15.6822C6.71674 14.8333 7.41195 14.0736 7.72409 13.7379C8.10742 13.9453 8.52264 14.0572 8.9487 14.0702L8.94905 14.0738C8.87487 14.1622 8.80226 14.2519 8.73127 14.3429C8.43269 14.7219 8.37058 14.8007 7.40957 14.9986C7.13628 15.055 6.41015 15.2047 6.39958 15.7135C6.39738 15.8214 6.42856 15.917 6.48054 16.0015C6.68045 16.3742 7.29249 16.5386 7.37477 16.5592C8.55048 16.853 9.58118 16.6403 10.345 15.9613C10.33 17.9268 10.4133 19.8531 10.6493 20.4433C10.8442 20.9305 11.3205 22.1212 12.8247 22.1211C13.0454 22.1211 13.2884 22.0954 13.5556 22.0382C15.1255 21.7015 15.8072 21.0077 16.0709 19.478C16.2033 18.7109 16.4247 16.9448 16.5456 15.8648C16.5605 15.8029 16.577 15.7585 16.5958 15.7448C16.5958 15.7448 16.6572 15.7033 16.9722 15.7719C16.9851 15.7747 16.9981 15.7767 17.0112 15.7779L17.2349 15.7975L17.248 15.7984C17.9941 15.8322 18.932 15.6727 19.478 15.4188C20.0452 15.1556 21.0689 14.5094 20.8833 13.9477ZM7.50851 15.9219C7.35777 15.8842 7.22033 15.8222 7.12774 15.7658C7.20606 15.7311 7.33689 15.6863 7.55353 15.6416C8.68413 15.409 8.85875 15.2447 9.24005 14.7605C9.32745 14.6494 9.42648 14.5237 9.56365 14.3705C9.59315 14.3374 9.61529 14.2985 9.62858 14.2562C9.77906 14.1229 9.86857 14.1593 10.0135 14.2194C10.1509 14.2763 10.2847 14.4485 10.339 14.6381C10.3647 14.7276 10.3936 14.8975 10.2992 15.0296C9.50251 16.1448 8.34195 16.1303 7.50851 15.9219ZM16.6254 15.0086C16.5897 14.276 16.8625 14.1994 17.1511 14.1184C17.191 14.1074 17.2307 14.0955 17.27 14.0826C17.3073 14.1156 17.3468 14.1459 17.3883 14.1734C17.8907 14.5051 18.7823 14.5445 20.0373 14.2918C19.8597 14.4476 19.5801 14.6436 19.1974 14.8213C18.8364 14.989 18.2321 15.1147 17.658 15.1417C17.024 15.1713 16.7014 15.0706 16.6254 15.0086Z" fill="black"/>
<path d="M1.61886 4.16157L2.9952 2.55096L5.40099 2.02385L8.11987 2.55096L10.5211 2.02385H12.9517L15.3237 1.76031L18.4278 2.55096L19.9798 4.16157L19.6284 7.44138L18.4278 11.014L17.0807 13.181L17.4321 13.6788H19.9798L19.1892 14.7331L16.1144 15.143L15.0623 20.5823L11.8389 21.1169L10.7554 18.1885L10.5211 15.143L9.17403 15.963H7.417L7.15345 15.143L8.99833 14.5866L9.46687 13.6788L7.85626 13.181L5.40099 15.7329L4.23193 15.4568L2.41747 11.7754L1.41382 7.17781L1.61886 4.16157Z" fill="#336791"/>
<path d="M20.3582 13.7449C20.3468 13.7099 20.331 13.6766 20.3113 13.6456C20.1955 13.4263 19.914 13.3608 19.4718 13.4522C18.094 13.7364 17.5605 13.5615 17.3671 13.4363C18.4855 11.7294 19.4046 9.66794 19.9014 7.74486C20.1275 6.86928 20.5665 4.80844 20.0032 3.80186C19.9672 3.73296 19.9251 3.66743 19.8775 3.60603C18.803 2.23303 17.226 1.49653 15.317 1.47628C14.0714 1.46311 13.0082 1.7647 12.7202 1.87578C12.5776 1.84915 12.4342 1.82648 12.2903 1.80778C11.9295 1.74245 11.564 1.70683 11.1975 1.70128C10.2123 1.68595 9.36096 1.92145 8.65596 2.40178C7.94155 2.1342 4.6653 1.03095 2.63771 2.46745C1.5053 3.26969 0.982548 4.70361 1.08388 6.72944C1.11796 7.41111 1.5063 9.50778 2.11913 11.5158C2.5023 12.7712 2.90138 13.7674 3.31363 14.5008C3.77446 15.3293 4.25188 15.8285 4.74221 15.992C5.11505 16.1163 5.68613 16.1121 6.29063 15.3854C6.9583 14.5825 7.61588 13.8639 7.91113 13.5464C8.27371 13.7426 8.66646 13.8484 9.06946 13.8607C9.06953 13.8618 9.06964 13.863 9.0698 13.8641C8.99962 13.9477 8.93095 14.0326 8.8638 14.1186C8.58138 14.4771 8.52263 14.5517 7.61363 14.7389C7.35513 14.7922 6.6683 14.9338 6.6583 15.4151C6.65621 15.5171 6.68571 15.6075 6.73488 15.6874C6.92396 16.04 7.50288 16.1955 7.58071 16.215C8.6928 16.4929 9.66771 16.2917 10.3902 15.6494C10.376 17.5086 10.4548 19.3306 10.678 19.8889C10.8624 20.3497 11.3129 21.476 12.7357 21.4759C12.9445 21.4759 13.1743 21.4516 13.427 21.3974C14.912 21.079 15.5568 20.4228 15.8062 18.9759C15.9315 18.2503 16.1409 16.5798 16.2552 15.5582C16.2693 15.4996 16.285 15.4576 16.3027 15.4447C16.3033 15.4443 16.3608 15.4054 16.6587 15.4703C16.6709 15.4729 16.6832 15.4748 16.6956 15.4759L16.9072 15.4945L16.9196 15.4954C17.6253 15.5274 18.5125 15.3765 19.029 15.1364C19.5655 14.8874 20.5337 14.2761 20.3582 13.7449ZM2.70121 11.3729C2.08163 9.34311 1.71963 7.30203 1.69096 6.72969C1.60046 4.92019 2.03855 3.66061 2.99288 2.98578C4.52346 1.90361 7.02605 2.53511 8.08288 2.87745C8.08021 2.88011 8.07738 2.88253 8.07471 2.88528C6.38821 4.58861 6.42821 7.49861 6.43238 7.67653C6.43221 7.74511 6.43788 7.84228 6.44588 7.97594C6.47488 8.46536 6.52888 9.37628 6.38463 10.4079C6.25055 11.3666 6.54605 12.3049 7.1953 12.9823C7.26246 13.0524 7.33263 13.1182 7.40513 13.1801C7.11613 13.4896 6.48813 14.1739 5.81971 14.9781C5.34663 15.5469 5.01996 15.4379 4.91255 15.402C4.58596 15.2931 4.23505 14.9128 3.8808 14.3001C3.48113 13.6009 3.07788 12.607 2.70121 11.3729ZM7.70721 15.6122C7.56463 15.5765 7.43463 15.5179 7.34705 15.4645C7.42113 15.4317 7.54488 15.3894 7.7498 15.3471C8.81921 15.127 8.98438 14.9716 9.34505 14.5136C9.42771 14.4086 9.52138 14.2897 9.65113 14.1448C9.67904 14.1135 9.69997 14.0766 9.71255 14.0366C9.85488 13.9105 9.93955 13.945 10.0766 14.0019C10.2066 14.0557 10.3331 14.2185 10.3845 14.3979C10.4088 14.4825 10.4361 14.6433 10.3469 14.7682C9.5933 15.823 8.49555 15.8094 7.70721 15.6122ZM9.45221 12.2889L9.40846 12.4064C9.29763 12.7035 9.19455 12.9798 9.13063 13.2422C8.57446 13.2404 8.0333 13.0029 7.62188 12.5735C7.09863 12.0276 6.86096 11.2682 6.9698 10.4899C7.12213 9.39994 7.06588 8.45086 7.03563 7.94103C7.03146 7.86961 7.02771 7.80711 7.02546 7.75778C7.27188 7.53936 8.41371 6.92761 9.22788 7.11411C9.59946 7.19928 9.82588 7.45219 9.91996 7.88744C10.4071 10.1406 9.98446 11.0797 9.6448 11.8344C9.5748 11.9899 9.50871 12.1368 9.45221 12.2889ZM15.5886 16.0993C15.5745 16.2466 15.5588 16.4126 15.5371 16.5959L15.4155 16.9611C15.4058 16.9901 15.4007 17.0203 15.4003 17.0509C15.3954 17.4464 15.3553 17.5916 15.3045 17.7753C15.2516 17.9663 15.1917 18.1829 15.155 18.6565C15.0633 19.8351 14.4231 20.5121 13.1406 20.7869C11.8777 21.0579 11.6537 20.3729 11.4563 19.7689C11.4361 19.7055 11.4147 19.6426 11.3922 19.58C11.2127 19.0919 11.233 18.4034 11.261 17.4508C11.2748 16.9831 11.2403 15.8664 10.9859 15.2456C10.9895 15.0013 10.9947 14.7532 11.0017 14.5024C11.0026 14.4707 10.9983 14.439 10.989 14.4086C10.9809 14.35 10.9687 14.2921 10.9524 14.2353C10.8502 13.8784 10.6013 13.5798 10.3026 13.456C10.184 13.4069 9.96613 13.3167 9.70446 13.3836C9.7603 13.1536 9.85705 12.894 9.96196 12.6129L10.006 12.4945C10.0556 12.3612 10.1177 12.2231 10.1835 12.0769C10.539 11.2872 11.0257 10.2058 10.4974 7.76253C10.2995 6.84744 9.63871 6.40061 8.63705 6.50436C8.03646 6.56653 7.48713 6.80886 7.21305 6.94778C7.1581 6.97563 7.1037 7.00455 7.04988 7.03453C7.12638 6.11253 7.41538 4.38944 8.4963 3.29928C8.57659 3.21837 8.66095 3.14161 8.74905 3.06928C8.79279 3.06075 8.83402 3.0424 8.86963 3.01561C9.49663 2.54011 10.2817 2.30678 11.2046 2.32186C11.5455 2.32745 11.8727 2.35011 12.1831 2.38936C13.799 2.6847 14.8864 3.59503 15.5464 4.37494C16.225 5.17686 16.5924 5.98453 16.739 6.42019C15.6364 6.30803 14.8862 6.52586 14.506 7.06936C13.6788 8.25178 14.9585 10.5468 15.5735 11.6497C15.6863 11.8519 15.7837 12.0265 15.8143 12.1008C16.0145 12.5862 16.2739 12.9102 16.4632 13.1468C16.5212 13.2193 16.5775 13.2896 16.6203 13.3509C16.2863 13.4472 15.6863 13.6697 15.741 14.7818C15.7307 14.912 15.7057 15.1542 15.6715 15.4608C15.633 15.6339 15.613 15.8444 15.5886 16.0993ZM16.3307 14.7484C16.297 14.0554 16.555 13.9829 16.828 13.9063C16.8657 13.8959 16.9032 13.8846 16.9405 13.8724C16.9757 13.9036 17.013 13.9323 17.0523 13.9583C17.5275 14.272 18.3709 14.3094 19.558 14.0703C19.39 14.2177 19.1255 14.4031 18.7635 14.5712C18.422 14.7298 17.8505 14.8487 17.3075 14.8742C16.7077 14.9022 16.4025 14.8069 16.3307 14.7484ZM16.8053 7.02236C16.8004 7.31469 16.7601 7.58003 16.7175 7.85711C16.6716 8.15511 16.6241 8.46328 16.6121 8.83728C16.6003 9.20128 16.6458 9.57969 16.6898 9.94569C16.7786 10.6849 16.8698 11.4459 16.5169 12.1969C16.4583 12.093 16.4061 11.9857 16.3605 11.8755C16.3166 11.7692 16.2215 11.5984 16.0896 11.362C15.5766 10.4419 14.3751 8.28736 14.9902 7.40819C15.3065 6.95594 16.1075 6.93644 16.8053 7.02236ZM16.9956 12.8671C16.9721 12.8371 16.9484 12.8073 16.9245 12.7776L16.895 12.7406C17.5001 11.741 17.3818 10.7521 17.2765 9.87519C17.2332 9.51536 17.1924 9.17553 17.2027 8.85636C17.2135 8.51794 17.2582 8.22778 17.3015 7.94711C17.3547 7.60128 17.4088 7.24353 17.3939 6.82169C17.405 6.77744 17.4095 6.72519 17.4037 6.66319C17.3656 6.25861 16.9038 5.04819 15.9625 3.95236C15.4562 3.36295 14.7212 2.70469 13.7218 2.25278C14.1594 2.16395 14.7491 2.0832 15.4088 2.09786C17.1184 2.13586 18.471 2.77578 19.429 3.99986C19.4493 4.02643 19.4679 4.05433 19.4845 4.08336C20.0871 5.21303 19.2544 9.31261 16.9956 12.8671ZM9.64846 7.77028C9.62763 7.91978 9.39105 8.12236 9.13088 8.12236C9.10833 8.12237 9.0858 8.12082 9.06346 8.11769C8.90738 8.09603 8.74971 7.99769 8.64188 7.85469C8.60371 7.80428 8.54163 7.70636 8.55396 7.61769C8.55855 7.58428 8.57571 7.53561 8.63105 7.49369C8.72955 7.41919 8.92421 7.39153 9.13905 7.42144C9.40263 7.45819 9.67455 7.58294 9.64846 7.77028ZM16.2572 7.42744C16.2665 7.49344 16.2164 7.59494 16.1296 7.68594C16.0727 7.74569 15.953 7.84936 15.7897 7.87194C15.769 7.87482 15.7481 7.87627 15.7272 7.87628C15.4826 7.87628 15.276 7.68094 15.26 7.56653C15.24 7.41944 15.48 7.30769 15.7275 7.27319C15.975 7.23869 16.2368 7.28053 16.2572 7.42744Z" fill="white"/>
</svg>
