<svg width="18" height="21" viewBox="0 0 18 21" fill="none" xmlns="http://www.w3.org/2000/svg">
<path d="M7.94446 18.5872L6.69016 16.8939H1.8924L0.544006 18.5872L1.8924 20.5H6.69016L7.94446 18.5872Z" fill="#9D8380" stroke="black" stroke-width="0.6"/>
<path d="M4.2913 14.5609C3.33882 14.5539 2.56662 15.9406 2.56662 15.9406H5.98462C5.98462 15.9406 5.23516 14.5678 4.2913 14.5609Z" fill="#6C5D5C" stroke="black" stroke-width="0.6"/>
<path d="M7.03509 7.68096L4.2756 13.6076L12.0837 9.87601L10.265 8.93528H13.4948L16.7874 5.48592L15.0313 4.6079H17.101C17.101 4.6079 17.5263 3.58463 17.4459 2.91457C17.2808 1.53798 16.7874 0.5 14.8432 0.5C12.899 0.5 10.5785 2.50693 10.5785 2.50693V4.35704L10.0454 3.10273L7.94446 6.11307V9.56244L7.03509 7.68096Z" fill="#D9D9D9" stroke="black" stroke-width="0.6" stroke-linejoin="round"/>
</svg>
