<svg width="22" height="19" viewBox="0 0 22 19" fill="none" xmlns="http://www.w3.org/2000/svg">
<path d="M14.687 7.60037C12.4935 3.84841 7.34058 -0.290553 5.77573 0.933926C4.21087 2.1584 5.34674 7.67157 7.34031 11.2057C9.50727 15.0473 14.3466 19.0967 16.2516 18.1443C18.1566 17.1919 16.788 11.194 14.687 7.60037Z" stroke="#53C1DE" stroke-width="1.1" stroke-linecap="round" stroke-linejoin="round"/>
<path d="M7.80268 7.10534C9.95459 3.68842 14.3335 0.0307524 15.83 1.11918C17.3265 2.2076 16.8115 7.17985 15.1494 10.6426C13.1315 14.8469 7.66661 18.6016 6.23847 17.7853C4.81033 16.969 5.46133 10.8231 7.80268 7.10534Z" stroke="#53C1DE" stroke-width="1.1" stroke-linecap="round" stroke-linejoin="round"/>
<path d="M11.0683 5.26838C15.282 5.28889 21 7.44513 21 9.4859C21 11.5267 15.2616 13.5475 11.0683 13.5674C6.82582 13.5876 0.9325 11.1189 1.00058 9.4859C1.06867 7.85287 6.80559 5.24763 11.0683 5.26838Z" stroke="#53C1DE" stroke-width="1.1" stroke-linecap="round" stroke-linejoin="round"/>
<path d="M12.7823 9.4371C12.8011 8.44151 12.0094 7.60039 11.0136 7.6004C10.0179 7.60041 9.22623 8.44152 9.24502 9.4371C9.26345 10.4137 10.0368 11.2057 11.0136 11.2058C11.9904 11.2058 12.7638 10.4137 12.7823 9.4371Z" stroke="#53C1DE" stroke-width="1.1" stroke-linecap="round" stroke-linejoin="round"/>
</svg>
