<svg width="28" height="41" viewBox="0 0 28 41" fill="none" xmlns="http://www.w3.org/2000/svg">
<g id="Group 1">
<path id="Vector" fill-rule="evenodd" clip-rule="evenodd" d="M10.5152 35.3226C10.258 35.4925 10.3951 35.8165 10.0704 35.8888C10.0159 36.0906 9.90656 36.2372 9.86819 36.455C10.0087 36.5976 9.95362 36.9358 10.2323 36.9404C10.3505 36.7613 10.3367 36.6102 10.5558 36.5764C10.7766 36.5423 11.0637 36.9228 11.4457 36.9808C12.0023 37.0652 12.0047 36.8406 12.3355 36.6573C12.8782 36.6741 13.2518 36.5222 13.7914 36.536C13.9807 36.5892 13.9273 36.8856 14.1555 36.9001C14.4149 36.7129 14.3653 35.9613 14.1151 35.8082C13.7614 35.7766 13.4923 35.8847 13.2658 35.7677C13.2677 35.5682 13.0465 35.4238 12.9827 35.161C12.9587 35.0617 12.993 34.9469 12.9827 34.7969C12.9444 34.2295 12.869 33.7172 13.1851 33.5431C13.1877 33.1819 13.4143 32.9187 13.1851 32.6532C12.9292 32.5997 12.9962 32.8688 12.7402 32.8149C12.4807 32.4719 12.5768 31.9569 12.538 31.4398C12.5323 31.3655 12.4687 31.2787 12.457 31.1972C12.3957 30.7667 12.348 30.1168 12.2953 29.7815C12.2177 29.2894 12.2677 28.7136 12.6188 28.4469C12.7365 28.5044 12.7989 28.6173 12.7805 28.811C12.9004 29.1364 13.2776 29.371 13.3872 29.7413C13.4469 29.9432 13.3427 30.2718 13.5085 30.3883C13.7172 30.4429 13.6575 30.2057 13.6703 30.1052C13.7445 29.5201 13.4137 29.2902 13.3872 28.9324C13.0032 28.5925 12.8374 27.7859 12.9019 27.0718C12.9198 26.8723 13.1192 26.6537 12.9019 26.5057C12.6851 26.9914 12.6372 27.5318 12.5378 28.0021C12.4895 28.2308 12.2388 28.3082 12.0929 28.4875C11.9967 28.6058 11.9713 28.7619 11.8906 28.8516C11.6945 29.0692 11.386 29.1891 11.2032 29.3773C10.9971 29.6095 10.8592 30.2691 10.556 30.3479C10.227 30.4335 9.96659 30.147 9.58526 30.1052C9.29978 29.6763 8.94336 29.3182 8.85724 28.6896C8.43123 28.145 7.94111 27.6643 7.64386 26.991C7.2535 26.7744 6.78503 26.6365 6.39007 26.4248C6.34027 26.1888 5.85458 26.0118 6.10697 25.7372C6.53571 25.904 6.75297 26.4905 7.23934 26.4654C6.97041 25.9524 6.45692 25.684 6.10697 25.252C5.8394 25.1151 5.57882 24.9713 5.58121 24.5644C5.81433 24.5112 5.96457 24.8647 6.10697 24.6454C5.8539 24.6035 5.80717 24.2917 5.66204 24.1197C5.52527 23.9575 5.1801 23.8526 5.29794 23.5939C5.70075 23.744 5.72923 24.2682 6.22823 24.3219C6.3036 24.1132 5.98487 23.9808 5.86413 23.8366C5.64396 23.4365 5.35064 23.1097 5.09569 22.7446C4.93947 22.7368 4.98688 22.9326 4.81259 22.9063C4.70669 22.7656 4.49948 22.6865 4.32724 22.8255C4.21179 22.752 4.16199 22.6131 3.92273 22.6636C3.76054 22.799 4.09036 22.9663 3.88231 23.0277C3.57125 23.0732 3.62582 22.6883 3.51821 22.5424C3.39423 22.374 3.21602 22.3957 3.11369 22.2188C2.93633 22.1762 2.98084 22.3556 2.8306 22.3403C2.69724 22.2848 2.70372 22.0896 2.54751 22.0572C2.45542 22.0865 2.58469 22.337 2.42609 22.2999C2.27482 22.1153 1.98797 21.8322 1.8599 21.5717C1.80652 21.4634 1.65423 21.2081 1.81948 21.0863C2.14521 21.1112 2.06847 21.5382 2.34525 21.6121C2.33502 21.4755 2.32956 21.2529 2.26442 21.0459C2.16448 20.7289 1.73916 20.2701 2.14316 19.9944C2.48867 20.1881 2.49123 20.7248 2.95202 20.8032C3.00404 20.3175 2.27226 20.0677 2.62851 19.6708C2.85993 19.6417 2.80161 19.9023 3.03303 19.8731C3.05708 19.7894 2.98306 19.6074 3.07345 19.59C3.39781 19.8318 3.76634 20.0297 4.08457 20.2776C4.09258 20.4853 4.24453 20.5491 4.32724 20.6821C4.38846 21.1332 4.66832 21.3657 4.81259 21.7337C5.39037 22.1535 5.8805 22.6611 6.754 22.7852C6.87849 22.9303 6.89094 23.1873 6.87525 23.4726C7.13856 24.2452 7.57155 25.1528 8.12904 25.5759C8.55266 25.8974 8.93279 26.4603 9.62551 26.3443C9.71368 26.4584 9.73756 26.6368 9.78735 26.7891C9.97273 26.9003 10.0021 27.1677 10.1919 27.2746C10.3225 27.5654 10.6622 28.1907 10.3941 28.4878C10.1665 27.9875 9.98927 27.4366 9.58526 27.1128C9.51176 26.7819 9.32792 26.5614 9.01908 26.4658C8.95018 26.7835 9.35436 26.9617 9.34259 27.3555C9.49607 27.4583 9.59567 27.6148 9.7471 27.7196C9.99268 28.0671 10.021 28.6321 10.3539 28.8925C10.4591 28.8379 10.3283 28.6101 10.3943 28.6094C10.5556 28.5695 10.5161 28.7303 10.6774 28.6903C10.7316 28.4667 10.6542 28.2706 10.6774 28.0836C10.6881 27.997 10.7584 27.9165 10.7584 27.841C10.7577 27.4482 10.6088 27.1406 10.4349 26.9107C10.2974 26.7292 10.1161 26.7487 9.98995 26.5872C9.90905 26.4833 9.86625 26.3547 9.8687 26.2231C10.0082 26.0754 10.3426 26.2376 10.6371 26.1828C10.7814 26.1518 10.5979 25.9911 10.8394 26.021C11.0304 26.0188 11.0693 26.1687 11.1629 26.2637C11.0592 26.6424 11.2719 26.9066 11.3652 27.194C11.4223 27.3696 11.3817 27.6164 11.5674 27.6793C11.826 26.9489 11.2202 26.7325 11.2441 26.102C11.3334 25.9893 11.4518 25.9054 11.6889 25.9402C11.8497 26.1973 11.7202 26.7448 11.9315 26.9514C11.8502 26.9966 11.8853 27.2642 11.9315 27.3154C12.2646 27.0062 11.9704 26.5983 12.0125 26.1426C12.1706 25.9876 12.2555 25.7347 12.4979 25.6977C12.7578 25.6581 12.9273 25.8869 13.1855 25.9403C13.3857 25.5264 13.3949 24.8913 13.5088 24.3226C13.6367 23.686 13.5 23.0396 13.3876 22.5026C13.2643 22.41 13.2824 22.1766 13.1045 22.1385C13.2735 22.9324 13.3062 24.0891 13.1855 24.9292C13.1533 25.1538 13.0646 25.4516 12.862 25.536C12.6722 25.4057 12.3502 25.2624 12.2958 24.9698C12.2318 24.6268 12.5122 24.2433 12.5385 23.8373C12.5704 23.3466 12.4571 22.7717 12.3766 22.4622C12.2562 21.9987 12.2455 21.7521 11.9319 21.5723C11.9389 21.9383 12.2028 22.521 12.2554 22.8667C12.3393 23.4182 12.2226 24.0508 12.134 24.363C12.0975 24.4918 12.1321 24.7017 11.9723 24.7271C11.717 24.6262 11.4528 24.3642 11.3655 24.1609C11.2217 23.8257 11.5598 23.5484 11.6082 23.1902C11.7008 22.5064 11.3798 22.255 11.3655 21.7344C11.1249 21.6109 11.2458 21.1262 10.961 21.0467C10.8466 21.5243 11.334 22.0892 11.4059 22.6242C11.4668 23.0763 11.4063 23.6592 11.0418 23.7162C10.7945 23.5378 10.4968 23.1655 10.7587 22.8263C10.5466 22.7363 10.4494 22.3802 10.5565 22.0981C10.4088 21.9934 10.5097 21.8087 10.4756 21.6533C10.4337 21.4629 10.3104 21.2683 10.233 21.0872C10.1699 20.94 10.2214 20.6719 9.99029 20.7231C10.0532 21.3075 10.4165 21.8068 10.233 22.5028C9.92617 22.6128 9.68912 22.3246 9.54536 22.1387V21.8152C9.35453 21.4129 9.39494 20.7792 8.97917 20.602C9.03221 21.0019 9.44031 21.4511 9.26226 21.8152C8.78919 21.7601 8.54601 21.1312 8.21056 20.8041C8.09579 20.6224 8.10244 20.3191 7.84663 20.2783C7.71583 20.5053 8.00762 20.6184 7.96788 20.8851C8.15889 21.1121 8.3458 21.3431 8.49365 21.6131C8.79721 21.7726 9.08917 22.1336 9.38352 22.3413C9.54212 22.4532 9.94118 22.4919 9.74744 22.8266C8.82756 22.6679 8.21465 22.2023 7.76562 21.5727C7.63823 21.3003 7.44553 21.0708 7.28027 20.8042C7.13361 20.5675 6.82903 20.3252 6.91635 19.9954C7.24838 19.9776 7.39095 20.3049 7.72521 20.1572C7.95509 19.6285 7.46497 18.9324 7.80604 18.6607C8.29702 18.6416 8.42168 18.9889 8.77674 19.1057C8.78374 18.6807 8.36148 18.6851 8.37223 18.2564C8.40378 18.2475 8.4193 18.2225 8.41265 18.1754C8.93654 17.9401 9.07655 18.4244 9.38335 18.5395C9.43502 18.2315 9.0305 18.1075 9.01925 17.8115C9.00936 17.5499 9.14698 17.3427 9.46418 17.3665C9.73056 17.3867 9.70686 17.6542 9.98995 17.7306C10.0029 17.3672 9.67719 17.3423 9.74728 16.9218C10.7239 16.5664 10.9318 17.7596 11.0012 18.4587C11.2949 18.5693 11.5192 18.7496 11.8101 18.8632C11.8394 19.0378 12.0023 19.0828 12.093 19.2273C12.2769 19.5196 12.2617 19.9492 12.538 20.1576C12.6715 19.6826 12.3843 19.2899 12.2549 18.9442C11.9977 18.8096 11.4805 18.3749 11.9314 18.1353C12.4101 18.3308 12.6785 18.7365 12.9425 19.1464C13.0876 19.5407 13.1111 20.0564 13.347 20.3598C13.493 20.1963 13.3489 20.0152 13.3066 19.834C13.2629 19.6475 13.254 19.4125 13.1853 19.2274C13.0625 18.8981 12.7273 18.6466 12.7808 18.2567C13.1797 17.9143 13.4372 18.3773 13.6301 18.7825C13.6877 18.9036 13.7984 19.1389 13.8323 19.2679C13.9903 19.868 13.8132 20.6397 14.1964 20.8856C14.3218 20.6346 14.2756 20.2116 14.2369 19.9149C14.1758 19.4469 13.9444 19.0354 13.9133 18.6207C14.2207 18.3824 14.4023 18.7846 14.5605 18.9442C14.5708 19.2324 14.7572 19.4797 14.8032 19.8745C14.8685 20.436 14.6446 21.126 15.0459 21.2497C15.037 20.8629 15.0819 20.3063 15.0055 19.834C14.9671 19.5972 14.7185 19.2199 15.0459 19.1464C15.5966 19.4662 15.7335 20.3765 15.6929 21.2497C15.6776 21.5805 15.4958 21.9874 15.7739 22.1798C16.0258 21.6477 15.7882 20.5564 15.9358 20.0363C16.4709 20.0899 16.3536 20.5858 16.4615 21.0878C16.4784 21.1665 16.5393 21.2137 16.5424 21.2901C16.563 21.8027 16.3594 22.4417 16.4615 22.9484C16.6897 22.8481 16.6065 22.4787 16.6638 22.2204C16.6808 22.1438 16.7371 22.0956 16.7448 22.0181C16.7845 21.6117 16.6314 21.1893 16.785 20.8856C17.1575 20.8752 17.2793 21.5422 17.3108 21.8157C17.3956 22.5507 16.939 23.0339 17.0681 23.5548C17.3446 23.5414 17.2968 23.1662 17.3512 22.9481C17.3785 22.8389 17.443 22.734 17.4726 22.6247C17.505 22.5047 17.4493 22.2966 17.5939 22.2606C17.8229 22.2369 17.7429 22.5308 17.7557 22.7054C17.7834 23.0811 17.7175 23.4994 17.7153 23.7569C17.6123 23.8526 17.3848 24.4213 17.7153 24.4445C17.8123 24.3528 17.6971 24.0489 17.8367 23.9998C17.9614 23.9931 18.0653 24.0953 18.1601 23.9998C18.2766 23.5172 18.485 22.9303 18.9287 22.9076C19.0513 23.7742 18.0069 24.033 18.1198 24.8895C18.4527 24.9147 18.3898 24.5414 18.4838 24.3233C18.5255 24.2266 18.6471 24.1981 18.6052 24.0806C18.7611 23.9938 18.8385 23.8287 18.9691 23.7167C19.1973 23.6526 19.3886 23.5392 19.5759 23.4336C19.7744 23.3215 20.0034 23.2392 20.1827 23.1101C20.6625 22.7637 20.8031 22.1007 21.2746 21.735C21.5725 22.1479 21.256 22.7605 21.1534 23.1507C20.623 23.7122 20.1073 24.2888 19.212 24.4853C19.3028 24.7316 19.67 24.6662 19.8994 24.6066C20.1453 24.5428 20.4044 24.2505 20.587 24.3639C20.4934 24.9176 19.992 25.0633 19.6567 25.375C19.5868 25.4802 19.323 25.3919 19.3332 25.5774C19.6439 25.7967 19.8643 25.3264 20.2231 25.3347C20.4194 25.1009 20.6791 24.9657 20.8703 24.7686C20.9315 24.7053 21.0255 24.6241 21.0725 24.5661C21.2944 24.2926 21.3478 23.9623 21.5173 23.6764C21.6203 23.5025 21.8417 23.3824 22.0026 23.1909C22.1338 23.0352 22.2068 22.8019 22.3261 22.6651C22.446 22.5282 22.627 22.452 22.7307 22.3012C22.768 22.2468 22.7675 22.1274 22.8115 22.0585C22.9715 21.8079 23.1575 21.5512 23.216 21.2093C23.3076 21.1525 23.3449 21.0415 23.4183 20.9666C23.4403 20.6786 23.3952 20.3235 23.7418 20.3598C23.6939 20.7466 23.7223 21.0965 23.6608 21.4114C23.6342 21.548 23.4962 21.7045 23.4585 21.8561C23.4391 21.9349 23.4832 22.0316 23.4585 22.0988C23.3325 22.4424 23.0917 22.7042 22.9328 22.9481C22.8531 23.0705 22.8018 23.2177 22.7305 23.3526C22.613 23.5748 22.3913 23.959 22.3664 24.2019C22.3555 24.3102 22.3036 24.427 22.4474 24.5254C22.5971 24.3245 22.6966 24.0735 22.7305 23.7568C22.9868 23.4641 23.1954 23.0995 23.4179 22.7456C23.6739 22.3391 24.0372 21.8067 24.1055 21.2896C24.1541 20.9214 24.185 20.7826 24.3078 20.5211C24.8348 20.2931 25.1646 19.868 25.4403 19.3888C25.5899 19.1744 25.5674 18.7878 25.9661 18.8226C26.048 19.6146 25.7835 20.1037 25.5213 20.4807C25.4632 20.5643 25.4315 20.6849 25.3999 20.7234C25.2231 20.9403 24.8208 21.0449 24.8337 21.411C25.5268 21.3087 25.5184 20.5048 26.0877 20.2785C26.2639 20.6647 25.9666 20.9069 25.9663 21.2492C25.8182 21.3573 25.7357 21.5307 25.6428 21.6939C25.44 21.8157 25.2749 21.9973 25.0766 22.1387C24.963 22.2199 24.6676 22.2371 24.7531 22.5028C25.3829 22.526 25.4898 22.0261 25.9664 21.896C25.9973 21.9871 25.9915 22.1496 25.9664 22.2195C25.8078 22.6612 25.0933 22.7731 24.9149 23.1901C25.2701 23.1679 25.3721 22.8925 25.7238 22.8667C25.9499 23.3422 25.4323 23.7201 25.198 23.9993C24.8707 24.1708 24.6441 24.443 24.1465 24.444C24.1906 24.6096 23.8983 24.4386 23.9846 24.6463C24.2955 24.7675 24.6751 24.3941 24.9959 24.525C24.7503 25.3039 23.9937 25.572 23.1353 25.7382C22.9926 25.9035 23.391 25.9862 23.2568 26.1428C23.1243 26.2918 22.8816 26.4185 22.65 26.5067C22.5908 26.5292 22.5085 26.4883 22.4477 26.5067C22.3284 26.5434 22.2433 26.6423 22.1242 26.6685C21.8771 26.7229 21.6389 26.6951 21.477 26.7495C21.3727 26.7845 21.2487 26.7502 21.2748 26.9112C21.5434 27.1066 21.9348 26.7076 22.1241 26.9516C21.9252 27.3607 21.3918 27.5497 20.8703 27.6391C20.7303 27.6631 20.4784 27.5361 20.4253 27.7605C20.5009 27.9701 20.8389 27.6684 20.8703 27.9221C20.7386 28.3164 20.0645 28.1681 19.7377 28.3671C19.7439 28.4957 19.8293 28.545 19.8186 28.6904C19.6499 28.8241 19.449 28.9953 19.212 29.0949C18.9855 29.1901 18.7232 29.1545 18.5243 29.2566C18.5854 29.5409 19.0537 29.1887 19.0905 29.459C19.1122 29.5984 18.936 29.6441 18.8479 29.7017C18.5532 29.8946 18.0751 30.0557 18.0794 30.3892C18.2834 30.403 18.362 30.1264 18.5242 30.2275C18.5967 30.6375 18.0296 30.6218 18.1601 30.9555C18.3136 30.8885 18.4488 30.7217 18.605 30.8745C18.5252 31.3073 18.1853 32.0374 18.605 32.371C18.676 32.2801 18.6243 32.0667 18.686 31.9666C18.7631 31.8281 19.0605 31.9097 19.1308 31.7642C19.1226 31.5972 18.9065 31.638 18.9285 31.4407C19 31.3099 19.0262 31.1341 19.2519 31.1576C19.3482 31.2635 19.3457 31.4685 19.4137 31.6025C19.6661 31.6114 19.5757 31.1569 19.535 30.9958C19.6816 30.8189 19.6712 30.4848 19.8991 30.389C20.1542 30.3361 20.0334 30.6591 20.2631 30.6317C20.3948 30.2783 20.4257 29.8236 20.6675 29.5801C20.5952 29.2779 20.7736 29.2002 20.8293 29.0543C20.8965 28.879 20.8634 28.6423 20.9102 28.5286C21.0081 28.29 21.2233 28.0596 21.4764 28.0028C21.6882 28.3333 21.438 28.6923 21.3551 28.9733C21.2093 29.0648 20.8515 29.3487 21.072 29.5395C21.2165 29.6149 21.3305 29.3139 21.3955 29.1756C21.5586 29.1635 21.5935 29.023 21.6786 28.9329C21.8072 28.871 21.8565 28.9186 22.002 28.9329C22.2509 28.6464 22.3792 28.3072 22.6896 28.0836C23.0492 27.8243 23.5605 27.7811 23.8625 27.4365C24.184 26.7199 24.1471 25.645 24.8736 25.3334C25.0802 25.836 24.7341 26.4149 24.5501 26.7893C24.4098 26.8391 24.1635 26.9482 24.267 27.1128C24.6888 26.909 24.8499 26.6175 25.1569 26.3039C25.6049 25.8462 26.0638 25.5177 26.168 24.8076C26.2523 24.73 26.3365 24.6526 26.3705 24.5245C26.1931 24.1221 26.1402 23.5951 26.0064 23.1495C26.136 23.0095 26.0512 22.6549 26.2894 22.6237C26.7267 22.8676 26.6321 23.6657 26.613 24.1606C26.8654 23.9309 26.785 23.5784 26.8556 23.2707C26.8867 23.1353 26.98 23.0028 27.0173 22.8664C27.1174 22.5006 27.182 22.1227 27.1791 21.6934C27.5327 21.3029 27.3364 20.5578 27.1387 20.2778C27.0819 20.1973 27.0579 20.0839 27.0173 20.0351C26.8418 19.8248 26.5285 19.7438 26.4105 19.5498C26.2956 19.3605 26.2729 19.0828 26.4105 18.8217C26.8892 18.7244 27.0628 19.2721 27.3004 19.5498C27.325 19.7097 27.3072 19.9865 27.5027 20.0755C27.6575 19.6066 27.2946 19.2123 27.5027 18.7813C27.3969 18.5702 27.2709 18.2794 27.3814 17.9725C27.0495 17.6034 27.1844 16.7674 26.8152 16.4356C26.8618 16.3878 26.8611 16.2927 26.8556 16.1929C26.7011 15.8493 26.3328 15.7619 26.0872 15.5459C25.9482 15.4234 25.9378 15.2698 25.7637 15.1818C25.4903 15.2735 25.2025 15.3146 24.9144 15.303C24.4406 15.2805 23.6981 15.157 23.701 14.7368C24.3808 14.5711 25.0854 14.7872 25.5614 15.0604C25.4547 14.574 24.8155 14.62 24.5909 14.2515C24.4074 14.2298 24.4829 14.4671 24.3078 14.4538C23.5185 14.4532 22.6435 14.5968 22.3664 14.0088C22.5078 13.817 23.178 13.7528 23.5798 13.8066C23.8129 13.8378 23.9983 14.0115 24.146 13.9278C23.4641 13.1967 22.3232 13.8258 21.3957 13.847C20.8379 13.1703 22.32 13.0739 22.8516 13.1594C22.8253 13.024 22.7056 12.9818 22.6089 12.9167C21.4726 12.7264 20.9393 13.3001 20.1823 13.402C19.9357 13.4353 19.4788 13.4448 19.2118 13.3212C19.2749 12.9564 19.7577 12.9111 20.1015 12.8359C20.2449 12.8045 20.3769 12.6911 20.506 12.6742C20.8455 12.6293 21.2287 12.7635 21.5575 12.6338C21.4968 12.4344 21.1702 12.4087 20.9913 12.3911C20.346 12.3277 19.8438 12.5698 19.495 12.7146C19.1359 12.8637 18.7338 12.9339 18.6052 13.1595C18.4677 13.1914 18.1403 13.3468 18.039 13.1595C18.0039 12.9356 18.1869 12.93 18.2007 12.755C18.3238 12.7243 18.5029 12.6133 18.6456 12.5123C18.7547 12.4351 19.0268 12.3094 18.8883 12.2293C18.5847 12.2666 18.3865 12.4363 18.1601 12.6338C18.0525 12.7276 17.907 12.8275 17.8367 12.9169C17.5845 13.2366 17.5085 13.6589 17.23 13.8876C17.1449 13.9575 16.916 14.0625 16.785 14.1302C16.6639 14.1928 16.4823 14.4026 16.3807 14.1707C16.483 13.9568 16.5855 13.7479 16.7042 13.5639C16.8219 13.3816 17.046 13.2518 17.0681 12.9977C16.7668 13.0093 16.6495 13.2677 16.5019 13.4426C16.3471 13.6265 16.2238 13.8405 16.0166 13.9684C15.8998 14.3335 15.6504 14.6071 15.6931 15.0199C15.6216 15.1236 15.5065 15.1838 15.4908 15.3434C15.1184 15.5104 15.1228 16.0539 14.601 16.0715C14.5885 15.7219 14.7879 15.5842 14.7628 15.2222C14.9504 15.1154 14.9726 14.8951 15.0863 14.7368C15.2403 14.5223 15.5358 14.3964 15.5717 14.0898C15.3433 14.1758 15.189 14.3997 15.0459 14.5752C14.8869 14.7699 14.7747 15.0037 14.5605 15.1414C14.3562 15.668 14.1006 16.3259 14.1156 17.0018C14.1183 17.1174 14.1707 17.2173 14.156 17.3253C14.1385 17.4544 14.0252 17.57 13.9943 17.6892C13.9597 17.822 14.0726 17.99 13.9133 18.0531C13.0494 17.8314 12.1363 17.8954 11.2843 18.0531C11.2755 18.0216 11.2506 18.0062 11.2035 18.0127C11.0548 17.3524 10.7335 16.865 10.2328 16.5567C10.1034 15.7744 10.5793 15.1623 10.6776 14.4536C10.7146 14.1869 10.6939 13.7943 10.6776 13.4425C10.653 12.9143 10.5109 12.5548 10.4753 12.1482C10.4654 12.0347 10.4954 11.9221 10.4753 11.8247C10.434 11.625 10.2688 11.4313 10.2326 11.218C10.2176 11.1291 10.2529 11.0174 10.2326 10.9349C10.176 10.706 10.0235 10.5024 9.98995 10.2473C9.91457 9.67545 10.0537 8.94827 9.94953 8.34645C9.92122 8.18324 9.82794 8.04818 9.82828 7.90151C9.82845 7.73729 9.96471 7.49222 9.98995 7.25449C10.0051 7.11158 9.96369 6.9286 9.98995 6.80956C10.0322 6.61856 10.199 6.47121 10.2326 6.28379C10.3726 5.50256 9.8131 4.90567 10.1112 4.46381C11.4989 4.60365 12.0553 4.09426 12.6996 3.49311C13.0888 3.13021 13.582 2.80942 13.7512 2.36074C13.2974 2.25842 13.0555 2.00841 12.5784 1.91581C11.8273 1.77017 11.0579 2.00227 10.5966 2.23932C10.3274 2.37762 9.97256 2.45965 9.86853 2.15831C9.6516 1.53005 10.44 1.46183 10.4753 1.14719C10.3547 0.807139 9.7761 0.953801 9.46418 0.904515C9.23634 1.12894 8.91113 1.3532 8.69574 1.55154C8.65975 1.58462 8.65447 1.64124 8.61473 1.67296C8.40975 1.83668 8.22846 1.91359 7.92712 1.91563C7.5944 1.56467 8.26394 0.974436 7.92712 0.5H7.80587C7.12304 1.70451 4.62483 1.09364 4.7321 3.08842C4.60692 3.17898 4.46879 3.25657 4.28716 3.29068C3.87395 3.65956 3.47899 4.06526 3.19521 4.54448C3.10329 4.69949 2.9232 4.90567 3.03337 5.11066C3.38979 4.99777 3.74963 4.59376 4.24675 4.50389C4.98893 4.36985 5.66341 4.57466 5.82422 5.27233C5.47803 5.43264 5.08989 5.32366 4.77252 5.43417C4.34532 5.58305 4.10367 5.95619 3.96365 6.36446C4.10077 6.50958 4.33713 6.36804 4.57043 6.36446C5.27202 6.35405 6.27376 6.54301 6.14773 7.21373C5.22563 7.65219 4.08218 7.83927 3.15479 8.26544C2.51391 8.55996 2.05346 9.04224 1.49648 9.39781C1.38461 9.65004 1.20452 9.83388 0.970716 9.964C0.867882 10.2792 0.549658 10.5391 0.363942 10.8943C0.221884 11.1663 0.00171911 11.757 1.37293e-05 12.0672C-0.00203272 12.4179 0.225295 12.7042 0.283107 13.0784C0.576944 13.216 0.708086 13.5161 1.21339 13.4423C1.64536 13.7435 1.18781 14.2813 0.970716 14.5342C0.986235 14.9002 0.759589 15.2133 0.687622 15.5858C0.635266 15.8564 0.659142 16.176 0.606787 16.4756C0.593826 16.5493 0.532944 16.6399 0.525782 16.7183C0.467458 17.3551 0.645328 17.8002 0.687622 18.2552C0.757542 19.0088 0.723265 19.7505 0.970716 20.3585C0.998172 20.4524 1.1051 20.4667 1.13256 20.5607V20.763C1.39177 21.0198 1.42912 21.4279 1.61791 21.7337C1.77156 21.9825 2.04084 22.166 2.22468 22.4211C2.38447 22.6431 2.50419 22.9789 2.6292 23.1493C2.7467 23.3094 2.82327 23.4552 2.91229 23.5941C3.04292 23.7979 3.14797 24.0375 3.27622 24.2008C3.34835 24.2926 3.47779 24.3468 3.55931 24.4435C3.64168 24.5411 3.68346 24.6838 3.76157 24.767C3.89851 24.9127 4.11714 24.9778 4.20633 25.1714C4.40211 25.1913 4.46691 25.3423 4.69168 25.3332C4.95363 25.5276 5.04862 25.8481 5.29828 26.0612C5.38134 26.132 5.506 26.1482 5.62179 26.2229C5.72343 26.2887 5.81007 26.4085 5.90489 26.4658C6.13392 26.6039 6.3974 26.6348 6.63291 26.7488C7.10905 26.9794 7.35991 27.3826 7.72487 27.679C7.82872 27.973 8.09084 28.1466 8.25064 28.407C8.41009 28.6667 8.53765 28.9778 8.65515 29.2969C8.84223 29.42 8.94916 29.6231 9.10008 29.7822C9.06973 30.0481 9.2829 30.2101 9.30234 30.4698C9.31326 30.6151 9.23924 30.764 9.26192 30.9146C9.27693 31.0147 9.34344 31.0884 9.34276 31.1977C9.34071 31.593 9.16915 32.0084 9.10008 32.411C8.96706 33.1861 8.77231 33.9553 8.65515 34.676C8.40003 34.9611 8.50235 35.514 8.41247 35.9702C8.36182 36.2277 8.23512 36.471 8.1698 36.6982C8.09459 36.9593 8.08231 37.2281 7.88671 37.3858C6.66617 37.7823 6.31333 36.865 5.3387 36.86C5.18147 37.0937 4.7865 37.0898 4.57026 37.2644C4.51807 37.482 4.45736 37.6909 4.48925 37.9926C4.31752 38.2252 4.04432 38.3565 3.88265 38.5992C3.81409 39.18 4.0155 39.4909 4.368 39.6509C4.4618 39.5288 4.52012 39.3714 4.48925 39.125C4.66508 38.9365 5.1506 38.8432 5.41954 38.8823C5.5575 39.0699 5.30084 39.2102 5.2577 39.4485C5.16697 39.9497 5.34825 40.4838 5.8643 40.5C5.95349 40.3388 5.83855 40.2249 5.8643 40.0146C5.93422 39.8864 6.07235 39.9638 6.18781 39.8934C6.44771 39.7345 6.55907 39.3629 6.91583 39.3272C7.09695 39.3091 7.2153 39.408 7.40119 39.4485C7.64761 39.5022 7.98101 39.5684 8.25046 39.5295C8.44334 39.5017 8.58984 39.3441 8.77623 39.3272C9.14903 39.2936 9.47459 39.4872 9.78735 39.5295C9.79793 39.6882 9.66763 39.8644 9.86819 39.8936C10.0145 39.8334 10.0778 39.5361 10.1513 39.4486C10.2858 39.2887 10.2183 38.9972 10.2323 38.6802C9.9613 38.5872 9.65041 38.534 9.50426 38.3161C9.45327 38.0465 9.2945 37.7944 9.302 37.5072C9.30882 37.2511 9.49454 37.0021 9.54468 36.7388C9.57657 36.5713 9.52165 36.4039 9.54468 36.2534C9.56105 36.1463 9.63813 36.0106 9.66593 35.9299C9.71249 35.795 9.76313 35.6965 9.78718 35.5658C10.2244 35.4212 10.6702 35.0769 10.5152 34.4739C10.3389 34.3371 10.285 34.6025 10.0704 34.5549C10.0368 33.9631 10.3455 33.3389 10.475 32.6945C10.4898 32.6203 10.463 32.5367 10.475 32.4518C10.5034 32.249 10.6319 32.055 10.6772 31.845C10.7494 31.5103 10.6481 31.0481 11.0009 30.8743C11.2746 31.1675 11.3075 31.7214 11.4052 32.2494C11.4433 32.4545 11.5337 32.6486 11.5669 32.8562C11.6104 33.1259 11.5874 33.4194 11.6479 33.665C11.6885 33.8296 11.7826 33.957 11.8098 34.1099C11.8761 34.4858 11.9238 34.9845 11.8906 35.2019C11.521 35.5839 11.0718 35.1826 10.5152 35.3226ZM13.7106 36.0911C13.7646 36.3888 13.3935 36.3819 13.2251 36.3339C13.2157 36.0819 13.4592 36.0826 13.7106 36.0911ZM19.8175 29.9435H19.5749C19.5599 29.6185 19.7435 29.4921 19.8175 29.2559H19.939C20.036 29.4737 19.8566 29.7304 19.8175 29.9435ZM20.1816 29.4984C20.2142 29.1672 20.3245 28.9133 20.5051 28.73C20.5705 28.7187 20.5747 28.7684 20.6264 28.7704C20.5004 29.0354 20.5688 29.4947 20.1816 29.4984ZM21.7185 28.6089C21.8851 28.209 21.6573 27.4151 22.2445 27.4359C22.394 27.9684 22.0463 28.5535 21.7185 28.6089ZM22.4871 27.8807C22.5119 27.4305 22.5673 26.8058 23.0937 26.991C23.0378 27.374 22.8396 27.7994 22.4871 27.8807ZM23.3364 27.5168C23.4314 27.1399 23.3107 26.5473 23.7812 26.5461C23.8584 26.9463 23.7104 27.4366 23.3364 27.5168ZM25.3586 25.7372C25.0936 25.1434 25.3842 24.2847 25.7632 23.9577C25.8285 23.9462 25.8327 23.9959 25.8844 23.9981C26.1414 24.6995 25.7188 25.3278 25.3586 25.7372ZM26.7741 22.7443C26.6367 22.761 26.6234 22.5403 26.5719 22.4208C26.4769 22.2006 26.3029 21.8275 26.41 21.4907C26.8967 21.5451 26.9082 22.3123 26.7741 22.7443ZM26.4102 20.1963C27.0874 20.2111 27.1912 21 27.1384 21.6117C26.9259 21.6528 26.8916 21.3541 26.7743 21.167C26.5933 20.8781 26.2683 20.6728 26.4102 20.1963ZM25.2374 19.266C25.1946 19.3361 25.0882 19.3533 25.035 19.4277C25.0029 19.4725 25.0239 19.5806 24.9947 19.6299C24.9708 19.6698 24.8776 19.6923 24.8329 19.7512C24.7316 19.8842 24.6073 20.156 24.3881 20.1557C24.3774 19.8375 24.1865 19.2561 24.4285 19.0637C24.3803 18.9367 24.2053 18.9363 24.1857 18.7806C24.2464 18.2607 24.5321 17.7994 24.5902 17.2437C24.6156 16.9992 24.5452 16.739 24.7116 16.5967H24.8329C25.0549 16.8856 25.1526 17.2306 25.116 17.6483C25.0749 18.1169 24.7321 18.4697 24.6306 18.8616C25.1051 18.915 25.1349 18.182 25.4799 17.9719C25.563 18.4244 25.4509 18.9155 25.2374 19.266ZM27.1382 18.7806C26.6733 18.5849 26.0357 18.5618 26.0463 17.8909C26.3648 17.741 26.8425 17.9687 27.0574 18.174C27.0224 18.4379 27.1408 18.549 27.1382 18.7806ZM26.9764 17.6887C26.2328 17.6907 25.7529 17.4293 25.4801 16.9607C25.475 16.8882 25.5295 16.8754 25.5205 16.799C26.2717 16.8295 26.8237 17.0592 26.9764 17.6887ZM24.5902 15.5046C25.5926 15.5283 26.6505 15.7775 26.7743 16.718C26.3606 16.7538 25.6179 16.4903 25.2374 16.273C24.9067 16.0844 24.4366 15.8871 24.5902 15.5046ZM23.4981 15.3429H23.5791C23.8992 15.484 24.0406 15.7579 24.1453 16.2328C24.1813 16.396 24.2894 16.5737 24.3069 16.7182C24.3624 17.1699 24.244 17.6909 24.0239 17.9719C23.4496 17.5207 23.4658 16.2661 23.4981 15.3429ZM16.2584 19.5491C15.7971 19.4713 15.6414 19.0878 15.3687 18.8211C15.1922 18.8086 15.1081 18.7041 15.0046 18.6188C15.005 18.5114 14.9893 18.3879 15.045 18.3357C15.498 18.1976 15.8387 18.5091 16.0966 18.6998C16.1266 18.9865 16.3923 19.2312 16.2584 19.5491ZM18.847 17.2437C18.5926 17.3288 18.2366 17.2818 18.0381 17.1629C17.8816 17.0693 17.8379 16.8484 17.7146 16.6776C17.5727 16.4813 17.3163 16.3604 17.3505 16.1518C18.083 15.9724 18.5978 16.6738 18.847 17.2437ZM18.4425 15.9091C19.002 15.5278 19.2036 16.4018 19.5344 16.6371C19.5495 16.9912 19.8687 17.2398 19.7369 17.6078C19.0651 17.6189 19.133 16.8904 18.847 16.5159C18.6872 16.3385 18.5274 16.1612 18.4425 15.9091ZM18.1998 19.1446C17.6974 19.0443 17.3628 18.4471 17.674 17.8908H17.8763C18.0823 18.1867 18.2731 18.7036 18.1998 19.1446ZM17.5528 17.0819C16.8889 17.0671 16.2801 17.3167 15.7731 17.3246C15.8317 16.5147 17.487 16.0016 17.5528 17.0819ZM16.3798 17.9314C16.3686 17.5408 16.7809 17.7646 17.0673 17.7291C17.2092 17.8838 17.3695 18.02 17.3099 18.3761C16.9273 18.3006 16.6668 18.1027 16.3798 17.9314ZM16.8652 20.2367C16.4117 20.1217 16.4827 19.2742 16.5011 18.8212H16.8246C17.1287 19.0143 17.1977 20.0104 16.8652 20.2367ZM17.5528 21.1266C16.9198 20.8404 17.2112 20.0619 17.391 19.4682C18.0288 19.5487 17.7189 20.7659 17.5528 21.1266ZM17.755 21.086C17.7972 20.9107 18.0613 20.498 18.0381 20.1963H18.1191C18.3516 20.3608 18.3739 20.7897 18.3214 21.1266C18.2696 21.4579 18.0731 21.814 17.9169 21.9354C17.6607 21.764 17.679 21.402 17.755 21.086ZM18.6447 22.623C18.3772 22.7332 18.295 23.2434 18.038 23.2296C17.8277 23.0864 18.067 22.7296 18.038 22.5016C18.2812 22.1921 18.4039 21.7621 18.5637 21.3691C18.5218 21.2551 18.4863 20.9906 18.5637 20.8837H18.6447C18.9573 20.9485 18.8593 21.4241 19.0087 21.6522C18.9352 22.0234 18.7989 22.3321 18.6447 22.623ZM18.5233 19.5491C18.6134 18.9638 18.3705 18.3594 18.5233 17.9718C18.7958 17.9419 18.8722 18.1082 19.0491 18.174C19.1391 18.4196 19.4751 19.0219 19.3322 19.7109C19.2924 19.9026 19.142 20.0087 19.0895 20.1559C18.8177 20.0368 18.698 19.7657 18.5233 19.5491ZM19.8175 18.9021H19.8985C21.0011 19.2882 20.2577 21.1719 19.575 21.5713C19.286 21.4291 19.3833 20.9003 19.2111 20.6412C19.6083 20.2565 19.7943 19.6606 19.8175 18.9021ZM20.667 21.9354C20.4982 22.1892 20.2604 22.41 20.0602 22.6634C19.9268 22.8324 19.6739 23.1309 19.4132 23.149C19.2812 22.9358 19.4316 22.7574 19.4536 22.5828C19.4858 22.3242 19.425 22.0408 19.5749 21.8546C19.6821 21.7214 19.9105 21.6209 20.0602 21.4907C20.1115 21.446 20.1286 21.4054 20.1816 21.3692C20.4216 21.2052 20.6745 20.8743 20.7884 20.52H21.0311C21.3686 21.056 20.9265 21.5452 20.667 21.9354ZM20.7478 18.538C20.7473 18.4305 20.7632 18.3071 20.7074 18.2549C20.4753 18.2143 20.2384 18.0528 20.0602 17.8504C20.0097 17.2901 19.9303 16.8394 19.7369 16.3539C19.6441 16.1213 19.3941 15.9761 19.6154 15.7471C20.1902 15.7306 20.5348 16.6796 20.667 17.3246C20.7026 17.4985 20.5747 17.7627 20.7884 17.8504C21.1421 17.2884 20.6706 16.5899 20.5861 16.0708C20.7615 15.9456 20.9508 16.0938 21.0715 16.1516C21.5246 16.8819 21.8729 18.1681 21.5163 19.2254C21.0086 19.2479 21.0689 18.7022 20.7478 18.538ZM21.9208 18.4167C21.9721 17.686 21.7172 17.0514 21.6377 16.3541H21.7185C21.9748 16.3992 22.1561 16.7378 22.2445 17.0011C22.4435 17.5961 22.4239 18.2931 22.2445 18.9425C22.2129 19.0559 22.1229 19.1556 22.0826 19.266C21.9716 19.5702 21.9975 19.9679 21.6783 19.994C21.3851 19.5126 21.8798 19.0005 21.9208 18.4167ZM22.042 20.075C22.0654 20.0401 22.0782 19.9267 22.123 19.8728C22.1621 19.8255 22.2613 19.8381 22.2847 19.7919C22.3255 19.7118 22.2883 19.5593 22.3251 19.4684C22.37 19.3577 22.4992 19.3086 22.5274 19.2257C22.6021 19.0056 22.5927 18.6713 22.6488 18.4169C22.7223 18.0843 22.6899 17.7825 22.6488 17.2843C22.8164 17.2379 22.8064 17.3694 22.9319 17.3652C22.9894 17.6982 23.1879 17.9257 23.1342 18.4169C23.1181 18.5632 23.0414 18.7344 23.0129 18.9022C22.9241 19.4234 22.8847 19.7614 22.6894 20.1964C22.5356 20.5394 22.2704 20.8612 22.0826 21.0053C21.6963 20.7401 21.8369 20.3837 22.042 20.075ZM23.1342 20.7625C22.9394 21.0261 22.8274 21.3725 22.7298 21.7332C22.4578 21.9465 22.4696 22.4434 22.0422 22.5016C21.9598 22.1832 22.0763 21.7318 22.1232 21.4096C22.2293 21.3406 22.3562 21.2923 22.3255 21.0861C22.7518 20.7979 22.928 20.2595 23.1343 19.7515H23.2962C23.2764 20.1228 23.1538 20.391 23.1342 20.7625ZM23.215 16.5561C22.8963 16.4937 22.5584 16.1098 22.3251 15.8281C22.349 15.1842 22.0502 14.8627 21.9612 14.3316C22.8673 14.3973 23.2759 15.524 23.215 16.5561ZM20.8288 13.8465C21.3369 14.3368 22.0799 14.8054 22.0826 15.6664C21.7105 15.6838 21.343 15.3576 20.9907 15.2215C20.8791 15.0309 20.8196 14.8642 20.7076 14.6957C20.4982 14.3809 20.1296 14.2056 20.0201 13.8059C20.2903 13.6357 20.5892 13.8727 20.8288 13.8465ZM18.8066 13.8465C18.9195 13.84 19.2292 13.8799 19.4134 13.9677C19.5266 14.0218 19.6001 14.173 19.7369 14.2508C20.0696 14.4401 20.5937 14.5718 20.5457 15.0597C20.2771 15.1299 19.903 15.0179 19.5344 15.0597C19.3434 14.9785 19.2585 14.7814 19.0897 14.6552C18.8127 14.4485 18.4051 14.4219 18.1998 14.1294C18.3443 13.9819 18.6033 13.8581 18.8066 13.8465ZM17.391 14.3316C17.7537 14.3177 18.4005 14.6069 18.6449 14.7766C18.7851 14.8741 18.9911 14.905 18.928 15.0597C18.8479 15.1992 18.6584 15.1577 18.5235 15.1809C18.4031 15.2017 18.2326 15.2728 18.1191 15.2619C17.8563 15.2363 17.5898 15.002 17.3101 14.8978C17.1224 14.8279 16.9105 14.8862 16.8248 14.6956C16.8623 14.4498 17.1972 14.3391 17.391 14.3316ZM17.5124 15.3429C17.3043 15.8416 16.4815 15.5541 16.299 15.2217C16.5591 14.8772 17.3307 15.0459 17.5124 15.3429ZM15.3687 16.1112C15.6085 15.8685 16.0652 15.5524 16.4607 15.8281C16.1825 16.2759 15.6549 16.4869 15.3281 16.9201C15.2151 17.0698 15.0941 17.4102 14.7619 17.3648C14.8598 16.9518 15.0657 16.418 15.3687 16.1112ZM2.14333 17.4864C2.37424 17.3887 2.66057 17.5538 2.83077 17.6483C2.98306 17.5333 3.15889 17.6507 3.35654 17.6483C3.68858 17.6443 4.07519 17.5002 4.32724 17.6887C4.3003 18.002 3.58523 17.9158 3.07345 17.8909C2.59713 17.8677 2.17761 17.9215 2.14333 17.4864ZM4.77217 20.6412C4.3327 20.6088 4.37397 20.0957 4.12515 19.8728C3.57159 19.7478 3.16503 19.2754 3.19487 18.7H3.2757C3.54515 18.7001 3.58029 18.9346 3.76106 19.0235C4.17717 19.0254 4.40569 19.2147 4.85301 19.1853C5.07113 19.3852 5.528 19.346 5.7427 19.5493C5.69342 19.9045 5.91785 20.2239 5.70229 20.3987C5.24763 20.4084 5.28515 19.926 4.85301 19.9133C4.71129 20.0834 4.88115 20.3931 4.77217 20.6412ZM6.67299 22.4206C6.29405 22.4109 5.73128 22.0918 5.37878 21.7736C5.02252 21.4516 4.81566 21.0292 5.09569 20.4388C5.56944 20.4797 5.70655 21.2212 5.94496 21.5713C6.05854 21.7383 6.20486 21.9197 6.30889 22.0163C6.44669 22.1438 6.71886 22.1484 6.67299 22.4206ZM8.9379 25.9393C8.16656 25.2413 7.37083 24.5675 7.27959 23.189C7.31745 23.1594 7.34081 23.1155 7.3606 23.0678C7.86914 22.9856 7.81764 23.4624 7.9672 23.8766C8.05179 24.1106 8.17884 24.1584 8.20988 24.4428C8.44368 24.8966 8.85008 25.1779 9.14016 25.5754C9.38881 25.6639 9.60709 25.7826 9.70635 26.0201C9.41541 26.1784 9.22952 25.9127 8.9379 25.9393ZM10.1109 23.3105C10.5266 23.2994 10.5389 23.6913 10.7176 23.9172C10.9528 24.2481 11.2349 24.5324 11.4457 24.8878C11.7173 25.061 12.0035 25.2196 12.0927 25.5754C11.366 25.4482 10.7141 24.7508 10.3131 24.0789C10.1456 23.7984 9.93896 23.5576 10.1109 23.3105ZM9.66593 23.3915C9.76655 23.5458 9.7338 23.7344 9.78718 23.8768C9.99421 24.4295 10.387 24.838 10.7983 25.2115C10.9828 25.3789 11.2741 25.528 11.3241 25.8182C10.6574 25.785 10.3145 25.3301 9.94902 24.8879C9.772 24.6739 9.6765 24.5637 9.50409 24.3218C9.44303 24.2361 9.12174 23.7869 9.09957 23.6343C9.01516 23.0511 9.48396 23.112 9.66593 23.3915ZM8.20988 23.1488C8.49144 23.1234 8.69557 23.1754 8.81665 23.3105C8.81239 23.9213 9.1243 24.2162 9.302 24.6451C9.5445 24.9418 9.84209 25.1835 10.0704 25.4944C10.2841 25.6177 10.5248 25.714 10.6366 25.9391C10.1978 26.0053 9.92583 25.8071 9.58492 25.5348C9.3506 25.3475 9.09139 25.1088 8.89731 24.8472C8.86099 24.7982 8.86798 24.7435 8.81648 24.6855C8.71364 24.5695 8.52281 24.3117 8.41196 24.1193C8.19947 23.7503 8.11079 23.6098 8.20988 23.1488ZM7.23934 21.3286C7.34252 21.4912 7.36111 21.668 7.48202 21.814C7.70099 22.0783 8.05895 22.1934 8.16963 22.5422C7.44075 22.5685 6.96665 21.9936 6.43048 21.6929C6.28365 21.4219 6.14824 21.1393 5.98572 20.884C6.09077 20.7735 6.03245 20.4993 6.10697 20.3583C6.41906 20.3561 6.49034 20.5952 6.754 20.6414C6.80072 20.9402 7.08995 21.0933 7.23934 21.3286ZM7.52244 19.8728C7.11468 20.0334 7.01833 19.581 6.63274 19.5897C6.4883 19.7375 6.7221 20.0174 6.59233 20.1559C6.30497 20.2333 6.08395 19.9149 6.02614 19.6301C6.45299 19.4234 6.95182 19.2885 7.32035 19.0233H7.4416C7.51323 19.2684 7.5956 19.6031 7.52244 19.8728ZM13.0634 2.48148C13.0511 2.81249 12.7006 3.14044 12.4162 3.08808C12.1913 3.04681 12.0823 2.72671 12.0523 2.44106C12.2673 2.13205 12.8243 2.34164 13.0634 2.48148ZM11.8096 2.52173C11.8654 2.89725 12.0911 3.10292 12.2543 3.37101C12.2387 3.53063 12.09 3.55706 12.0117 3.6541C11.5442 3.60123 10.9248 2.38478 11.8096 2.52173ZM11.122 2.92624C11.1349 3.19603 11.2942 3.32939 11.4455 3.53302C11.5018 3.60873 11.6576 3.76955 11.6477 3.85653C11.6067 4.21721 10.8907 4.08266 10.7175 3.81611C10.6808 3.75949 10.3397 2.96188 10.3535 2.88583C10.4156 2.54509 10.7744 2.67197 11.122 2.92624ZM9.38284 1.2681C9.50119 1.21131 9.62449 1.1593 9.82777 1.1871C10.0421 1.59349 9.33508 1.75414 9.38284 1.2681ZM9.34242 1.71286C9.5885 2.00602 9.5885 2.54543 9.98944 2.68357C10.0423 3.29136 10.3655 3.62869 10.5556 4.0992C10.1914 4.25371 10.0036 3.90189 9.78718 3.77569C9.80577 3.54751 9.50477 3.2784 9.38267 2.92641C9.33935 2.80141 9.35504 2.67845 9.30166 2.56248C9.17597 2.28809 8.48512 1.64158 9.34242 1.71286ZM7.32018 1.51078C7.41756 1.61566 7.48526 1.75004 7.48202 1.95571C7.63192 2.19958 7.9759 2.12625 8.12904 2.36023C8.26155 2.56266 8.20766 2.87372 8.3313 3.16909C7.6014 3.33059 7.52858 2.49035 7.27976 2.03655C7.16653 1.92058 7.02532 1.83258 6.95625 1.67262C6.94994 1.491 7.13787 1.50379 7.32018 1.51078ZM6.34948 1.71286C7.04715 1.74322 7.23269 2.2857 7.27976 2.96666C6.76337 2.91686 6.68117 2.18867 6.34948 1.87471V1.71286ZM5.70246 1.95571C6.28007 1.78586 6.4061 2.409 6.51132 2.84541C6.03467 2.79629 6.0495 2.25569 5.70246 2.07696V1.95571ZM5.21711 2.92624C5.10899 2.57732 5.26401 2.21851 5.5002 2.2388C5.72088 2.25773 5.75345 2.63326 5.86413 2.84541C5.64448 2.95506 5.46149 2.99395 5.21711 2.92624ZM4.56992 6.08102C4.86 5.43008 6.0154 5.91304 6.55174 5.63609C6.44703 4.98583 6.05223 4.62565 5.98555 3.93736C5.85356 3.72777 5.4973 3.75625 5.54062 3.45201C5.58427 3.14555 6.26216 3.12594 6.59215 3.16892C6.7059 3.18358 6.81761 3.2697 6.95608 3.29017C7.04937 3.30398 7.18784 3.26902 7.27959 3.29017C7.90785 3.43444 8.43789 3.97607 8.89731 3.81594C8.92 3.53711 8.76515 3.43581 8.65464 3.29017C8.72524 2.77122 8.32482 2.51917 8.45238 2.07679C8.59137 2.05906 8.67903 2.09282 8.77589 2.11721C9.0259 2.51439 9.11151 3.0758 9.34208 3.49226C9.47339 3.65768 9.69202 3.73562 9.74659 3.97761H9.26124C9.26721 4.36985 9.70771 4.55624 9.78701 4.94831C9.82487 5.13556 9.73295 5.37073 9.74659 5.59533C9.76143 5.83903 9.87552 6.08034 9.78701 6.40419C9.64461 6.44921 9.61801 6.71781 9.50392 6.84912C9.43639 6.92672 9.25033 6.98317 9.13982 7.0918C9.03596 7.19412 8.98497 7.33328 8.89715 7.41531C8.74554 7.55737 8.50644 7.70847 8.29054 7.90066C7.90274 8.24583 7.61743 8.54001 7.19859 8.95237C6.90731 9.23887 6.74274 9.52913 6.38973 9.3163C6.1873 8.86557 6.47977 8.58332 6.6324 8.22434C6.78879 7.85598 6.82989 7.3193 6.59199 6.93013C6.24375 6.36036 5.38475 6.17755 4.56992 6.08102ZM6.18764 7.69874H6.34948C6.44191 7.88344 6.44447 8.43172 6.1068 8.42677C6.06076 8.1111 6.22413 8.00486 6.18764 7.69874ZM1.13204 15.9091H1.3343C1.37523 16.2052 1.39672 16.5208 1.49614 16.7584C1.01045 16.8396 1.15626 16.2894 1.13204 15.9091ZM1.25347 11.177C1.02495 11.2855 1.19463 11.7923 0.970374 11.9051C0.876749 12.3254 1.14074 12.7173 0.970374 12.9566C0.923306 12.9499 0.898408 12.9656 0.88954 12.997C0.00444854 12.6563 0.429598 10.8126 1.13221 10.6108C1.20009 10.0452 1.62695 9.83831 2.02191 9.59973C2.26135 9.24757 2.5105 8.98852 2.9522 8.70986C3.4783 8.37817 4.00544 8.27397 4.73176 8.02225C5.18283 7.86587 5.46302 7.59949 5.90455 7.69874C5.98674 7.88941 5.92211 8.24515 5.7427 8.30535C5.63799 8.69946 5.75072 9.31101 5.29777 9.35705C5.09637 8.94435 5.59911 8.40409 5.29777 8.14368C5.20619 8.31746 5.07471 8.54529 5.01468 8.79087C4.91236 9.20869 4.99745 9.72661 4.73159 10.0042C4.34259 9.81256 4.64649 9.0784 4.65058 8.66962C4.14084 9.01496 4.38744 10.14 4.12481 10.53C3.6103 10.3417 4.09923 9.26769 3.96297 8.83146C3.51207 9.0141 3.66572 9.80148 3.4372 10.2065C3.52435 10.4456 3.7556 11.022 3.4372 11.177C2.77893 10.9753 3.14456 9.86253 2.95185 9.27622C2.55706 9.40788 2.65409 10.2865 2.70918 10.6513C2.76784 11.0399 2.74005 11.4673 2.83043 11.7838C2.6587 11.941 2.41074 11.9499 2.30466 11.622C2.28983 11.5761 2.35156 11.49 2.34508 11.3793C2.34099 11.3087 2.26476 11.214 2.26425 11.177C2.25879 10.8121 2.49294 10.3564 2.22383 10.2468C2.01321 10.347 2.09951 10.6035 2.06199 10.8129C2.00434 11.1346 1.835 11.4712 1.90015 11.9857C1.96939 12.1861 2.10445 12.3208 2.06199 12.6329C1.92266 12.7477 1.76048 12.8756 1.53622 12.7948C1.17417 12.5236 1.5705 11.4936 1.25347 11.177ZM1.65781 17.0819C1.60478 16.8807 1.7823 16.9098 1.77906 16.7584C1.76355 16.5178 1.65747 16.3675 1.57681 16.1922C1.47397 15.2909 1.80055 14.7901 1.8599 14.0081C1.87252 13.8422 1.8263 13.6434 1.8599 13.4824C1.90833 13.2499 2.10871 13.0541 2.26442 12.8352C2.41722 12.62 2.56098 12.4017 2.70918 12.2286C3.03575 11.8499 3.41755 11.5227 3.84172 11.2579C4.50903 10.5095 5.2536 9.83865 6.06622 9.23563C6.1595 9.3898 5.9864 9.6937 6.10663 9.88265C6.32952 9.98532 6.49017 9.78187 6.75365 9.80165C6.83466 9.74793 6.8437 9.62207 6.87491 9.51855C7.04101 9.52282 7.03692 9.35688 7.23883 9.3973C7.56013 9.16588 7.6587 8.71174 8.16912 8.66928C8.21278 8.96499 7.8451 9.03337 8.00728 9.3163C8.4795 9.1241 8.58932 8.19654 9.26107 8.46702C9.40586 8.87239 9.06461 9.1814 8.77572 9.51855C8.5547 9.77658 8.21568 10.0288 8.16912 10.2062C8.15241 10.2698 8.03235 10.6184 8.33079 10.6107C8.45699 10.5616 8.46722 10.3967 8.53304 10.2872C8.92034 9.97338 9.11867 9.4708 9.50375 9.15463C9.8114 9.3313 9.59959 9.66556 9.50375 9.84224C9.39852 10.0363 9.22389 10.2498 9.09923 10.4084C8.80727 10.7799 8.27792 11.117 8.45221 11.5812C8.96246 11.2826 9.03852 10.5498 9.66559 10.3678C9.86819 10.7647 9.45804 11.183 9.22066 11.4598C9.02488 11.6881 8.84786 11.9209 8.65447 12.026C8.63741 12.3461 8.29685 12.3423 8.37138 12.754C8.72013 12.7479 8.87941 12.3601 9.0994 12.107C9.20991 11.9798 9.33969 11.8689 9.46333 11.7429C9.57179 11.6327 9.63762 11.3844 9.86785 11.4598C9.72118 12.459 8.88401 12.768 8.4928 13.5224C8.72234 13.84 9.08968 13.4433 9.13982 13.1989C9.54655 13.0799 9.53547 12.5429 9.94885 12.4305C10.1061 12.9955 9.62278 13.2613 9.50392 13.6843C9.32178 13.8678 9.05898 14.1062 8.81631 14.3313C8.62565 14.5082 8.20595 14.7779 8.4928 15.0593C8.69574 15.0303 8.8129 14.8247 8.93773 14.6954C9.19524 14.4285 9.45497 14.1625 9.70617 13.8461C9.81992 13.703 9.90826 13.4924 10.1107 13.4416C10.3878 13.7138 10.0005 14.0856 9.98944 14.3313C9.69236 14.7234 9.28631 15.0846 8.89749 15.4638C8.73002 15.6272 8.39013 15.8259 8.57397 16.1109C8.76429 16.0604 8.92562 15.883 9.05932 15.7469C9.19234 15.6114 9.33304 15.4785 9.46384 15.3424C9.72937 15.066 9.89837 14.7022 10.1919 14.4527C10.4419 14.9142 10.0505 15.3733 9.94919 15.7469C9.76399 15.9528 9.58168 16.1613 9.50426 16.475C9.29535 16.6238 9.2285 16.8612 9.05932 17.0412C8.74553 17.3752 8.32396 17.6385 7.96737 17.9714C7.88466 18.0487 7.82327 18.1703 7.7247 18.2545C7.53762 18.4147 7.36418 18.482 7.19893 18.6995C7.10513 18.6865 7.04357 18.7059 6.99667 18.7399C6.95455 18.8325 6.83943 18.8523 6.79441 18.9421C6.39058 19.0532 6.01574 19.3282 5.54062 19.1444C5.51896 18.9611 5.76965 19.0499 5.86413 18.9827C6.37711 18.7136 6.92675 18.4815 7.15834 17.931C6.97962 17.8255 6.79782 18.0373 6.67299 18.1333C6.30855 18.414 5.72309 18.8451 5.17652 18.9421C5.03787 18.9669 4.8953 18.9993 4.772 18.9017C4.66985 18.7793 4.91065 18.7409 5.0551 18.7399C5.45978 18.538 5.91086 18.2617 6.34931 18.0119C6.64485 17.8434 7.16533 17.7025 7.03692 17.2838C6.7603 17.2768 6.65815 17.4443 6.51115 17.5669C5.8203 17.9554 4.93333 18.5388 3.76089 18.5376C3.39764 18.5373 2.83196 18.5743 2.74977 18.2141C4.00168 18.2172 5.15435 18.1483 6.0258 17.6075C6.26165 17.3309 6.76713 17.3242 6.83466 16.8795C6.60256 16.8406 6.31895 17.0788 6.06622 17.203C5.64226 17.4114 5.37468 17.547 4.81242 17.6883C4.69714 17.7173 4.5706 17.8897 4.48891 17.7288C4.49317 17.4093 4.96147 17.5543 5.09569 17.3647C5.22478 17.3406 5.22069 17.4406 5.29794 17.3647C5.7792 17.1179 6.27973 16.8904 6.59215 16.475C6.36005 16.2048 5.83002 16.7072 5.58104 16.8389C5.16322 16.866 4.99268 17.1404 4.56992 17.1624C4.60095 16.8072 5.01093 16.7799 5.21694 16.6366C5.42738 16.4903 5.65369 16.2794 5.82371 16.1109C6.51575 15.4245 6.96017 14.3833 7.52227 13.482C7.49123 13.3296 7.57173 13.2886 7.56269 13.1585C7.75079 12.9387 7.82616 12.5297 7.84578 12.2282C7.84851 12.1864 8.04633 11.9042 7.84578 11.8237C7.53779 11.8798 7.61385 12.3198 7.40085 12.4707C6.76218 12.2195 7.22434 10.8677 6.91549 10.2867C6.67674 10.3117 6.77668 10.6431 6.75365 10.8124C6.72142 11.051 6.6411 11.5478 6.67265 11.945C6.68169 12.0579 6.77872 12.1905 6.79407 12.3089C6.84506 12.7037 6.87764 13.003 7.07717 13.2392C7.0272 13.5533 6.90219 13.7924 6.71307 13.9672C6.57254 13.9594 6.55958 13.8241 6.42997 13.8054C6.30701 13.025 6.2359 12.1929 6.1873 11.3382C5.95127 11.4876 6.03961 11.9937 5.98504 12.3493C5.96662 12.469 5.89977 12.5708 5.90403 12.6728C5.90966 12.8004 6.02307 12.9503 6.06587 13.1582C6.1126 13.3855 6.0582 13.6478 6.10629 13.8458C6.19514 14.2102 6.40576 14.2696 6.34897 14.6142C6.32646 14.7505 6.14705 15.0245 5.98504 15.0187C5.66051 15.0071 5.68489 14.4111 5.62094 14.0482C5.60423 13.9534 5.54522 13.8577 5.54011 13.8055C5.45654 12.9702 5.71883 11.9774 5.54011 11.379C5.32523 11.5203 5.41578 11.9373 5.37827 12.2282C5.34262 12.5054 5.23791 12.7934 5.21642 13.0371C5.19084 13.3267 5.28686 13.649 5.29726 13.9674C5.30016 14.0545 5.24627 14.1695 5.25684 14.2505C5.26895 14.3431 5.35286 14.4415 5.3781 14.5336C5.41851 14.6807 5.43181 14.898 5.49935 15.0997C5.57831 15.3356 5.6912 15.4918 5.66119 15.6255C5.6015 15.8902 5.1975 15.99 5.05441 15.7468C4.99558 15.6468 5.06328 15.5563 5.014 15.4233C4.95636 15.2672 4.83561 15.1153 4.81174 15.0187C4.6649 14.4251 4.76979 13.4737 4.77132 12.6326C4.77217 12.1305 4.75103 11.5773 4.52865 11.2979C4.36527 11.3433 4.49266 11.573 4.52865 11.6619C4.6192 12.5889 4.35845 13.7564 4.44781 14.7761C4.49983 15.3692 4.84602 15.8646 4.77132 16.3938C4.3327 16.6544 4.18109 16.1143 4.08371 15.6253C4.05251 15.4681 3.95121 15.3056 3.92187 15.14C3.81102 14.5121 3.97883 13.753 3.84104 13.4009C3.66078 13.4385 3.70631 13.716 3.6792 13.8862C3.61763 14.2745 3.57432 15.0633 3.6792 15.6658C3.75219 16.0843 3.99537 16.3953 4.00271 16.6769C3.98685 16.9172 3.63042 16.8171 3.39593 16.8387C3.21295 16.6742 3.03712 16.1422 2.99142 15.7872C2.85584 14.7295 3.53049 13.553 3.19368 12.5112C2.89029 12.6646 3.0598 13.0925 3.03184 13.4819C2.99398 14.0109 2.75505 14.4938 2.70833 15.0187C2.64898 15.684 2.76034 16.4033 2.91058 16.9197C1.98542 17.0224 2.35139 15.8341 2.14214 15.221C2.04152 15.2147 2.01696 15.2846 1.93988 15.3018C1.81812 15.375 2.05482 15.4258 1.9803 15.5849C1.72262 16.064 2.12798 16.6334 2.02072 17.0814C1.93187 17.1672 1.82682 17.0393 1.65781 17.0819ZM3.68005 23.5127C3.91488 23.6689 4.09412 23.8806 4.1654 24.2003C3.84854 24.1483 3.6543 23.7745 3.68005 23.5127ZM4.56992 24.7261C4.83954 24.7728 5.07096 25.052 5.05527 25.2519C4.77695 25.193 4.52455 25.1084 4.56992 24.7261ZM5.58104 25.6966C5.73964 25.6107 5.94513 25.7775 5.94513 25.9797C5.80001 26.0522 5.59621 25.8839 5.58104 25.6966ZM9.98944 39.084C9.92174 39.2136 9.60215 39.2595 9.50409 39.1243C9.46094 38.673 9.96488 38.7059 9.98944 39.084ZM5.86413 37.2235C5.82456 37.3862 5.75174 37.5156 5.5002 37.4661C5.2652 37.1162 5.7468 36.9054 5.86413 37.2235ZM4.97443 38.6391C4.67565 38.6754 4.60505 38.1735 4.93402 38.0729C5.27117 38.1488 5.21455 38.6101 4.97443 38.6391ZM4.93384 37.8706C4.77149 37.6317 5.63544 37.5347 5.58087 37.8706C5.44972 37.9293 5.06277 37.944 4.93384 37.8706ZM5.54062 39.731C5.46098 39.3081 5.91648 39.0259 6.18764 39.3267C6.21066 39.7114 5.86157 39.9309 5.54062 39.731ZM8.97849 39.0032C8.79056 39.0269 8.73428 38.9479 8.61439 39.0032C8.17713 39.4346 7.50351 39.1545 6.95608 39.0032C6.75144 38.9466 6.45504 39.0131 6.47073 38.7605C6.51507 38.5942 6.74206 38.7054 6.87525 38.6795C7.08057 38.6399 7.29852 38.5779 7.32018 38.3964C7.31251 38.3637 7.27959 38.3562 7.27976 38.3154C6.73251 38.2537 6.13119 38.488 5.66204 38.6389C5.4707 38.333 5.72241 38.1224 6.02597 38.0727C6.28263 38.031 6.66821 38.253 6.79441 37.9919C6.71307 37.6858 6.06895 38.0062 5.98555 37.6278C6.20299 37.0869 6.65781 37.6728 7.03709 37.7491C7.30875 37.8038 7.62647 37.6435 7.92678 37.6682C8.17713 37.6889 8.43652 37.8587 8.69523 37.9109C8.87804 37.9477 9.03085 37.8587 9.18058 37.9919C9.15483 38.3401 9.24538 38.8083 8.97849 39.0032ZM9.01891 37.5876C8.80761 37.5968 8.61508 37.5869 8.45272 37.5471C8.30589 37.3191 8.31766 36.9738 8.45272 36.7383C8.78902 36.712 8.93108 36.88 9.22117 36.9001C9.18655 37.1621 9.14749 37.4197 9.01891 37.5876ZM9.302 36.455C8.7486 36.6578 8.44556 36.1532 8.6954 35.6866C8.98906 35.6235 9.23651 35.7722 9.50426 35.8482C9.48038 36.0942 9.4137 36.2973 9.302 36.455ZM10.1109 34.8777C10.0263 35.3777 9.32929 35.4204 8.89749 35.2418C8.81051 34.9154 8.89919 34.5146 9.01874 34.2711C9.21025 34.1226 9.54638 34.3061 9.78718 34.3521C9.794 34.6282 9.8762 34.8293 10.1109 34.8777ZM9.9086 33.907C9.15125 34.1974 8.98241 33.4031 9.34242 32.9769C9.62056 32.9818 9.84005 33.0453 10.0704 33.0981C10.0652 33.4165 10.0113 33.686 9.9086 33.907ZM10.1513 32.6532C9.77831 32.7562 9.46998 32.5905 9.38284 32.2891C9.47783 32.1416 9.47885 31.8999 9.58509 31.7633C9.8542 31.8043 10.1373 31.8314 10.3535 31.9252C10.3464 32.2281 10.2834 32.4752 10.1513 32.6532ZM10.4344 31.4398C10.0808 31.571 9.81668 31.317 9.58509 31.1972C9.58561 30.9821 9.55985 30.7405 9.6661 30.631C10.0213 30.7413 10.367 30.6241 10.5964 30.8736C10.5853 31.1054 10.4744 31.2374 10.4344 31.4398ZM11.0816 30.2266C11.1266 29.8332 11.697 29.7194 12.1331 29.6199C12.1616 29.8342 12.2453 29.993 12.2141 30.267C11.9992 30.7998 11.0033 30.9117 11.0816 30.2266ZM11.6073 31.6017C11.6099 31.3701 11.4917 31.2589 11.5265 30.9949C11.7045 30.8765 11.9189 30.7942 12.1331 30.7118C12.3606 30.7674 12.2114 31.1997 12.2545 31.4398C12.0792 31.5345 11.9175 31.6424 11.6073 31.6017ZM11.6882 31.9254C11.8561 31.8372 12.0233 31.748 12.2949 31.7635C12.4745 32.1876 12.4055 32.6379 11.8904 32.6534C11.7516 32.482 11.7347 32.1888 11.6882 31.9254ZM11.85 32.9365C12.039 32.8828 12.2448 32.8459 12.4162 32.7748C12.5973 32.8768 12.5797 33.1774 12.8611 33.1791C12.7146 33.6347 11.6778 33.7285 11.85 32.9365ZM12.3758 35.4845C12.2648 35.2885 12.1041 34.8856 12.2949 34.6352C12.1409 34.4387 11.9914 34.2377 12.0523 33.8263C12.2532 33.7846 12.4039 33.6926 12.6589 33.7049C12.7441 33.9108 12.708 34.3108 12.6186 34.4734C12.7348 35.0583 12.9026 35.5916 12.942 36.2531C12.7684 36.4139 12.5177 36.2652 12.2949 36.3341C12.0523 36.4088 12.0084 36.673 11.6882 36.698C11.5913 36.7057 11.4023 36.6943 11.2837 36.6576C11.1476 36.6158 11.0313 36.4598 10.8793 36.3745C10.7485 36.3012 10.461 36.3587 10.5152 36.1318C10.7434 35.8859 11.0945 36.052 11.4051 36.0106C11.5209 35.9951 11.5483 35.927 11.6477 35.8892C11.7177 35.8627 11.82 35.8783 11.8904 35.8487C12.0879 35.766 12.2494 35.6103 12.3758 35.4845Z" fill="#DD3C26"/>
<path id="Vector_2" fill-rule="evenodd" clip-rule="evenodd" d="M6.91586 4.70587C7.05076 4.70587 7.054 4.57438 7.19896 4.58445C7.32669 4.71286 7.44675 4.84895 7.64372 4.90796C7.79396 4.92347 7.74945 4.74407 7.92681 4.7867C7.91658 5.04063 8.24657 5.07474 8.45258 4.98896C8.46162 4.95758 8.4536 4.90915 8.493 4.90796C8.37311 4.10626 7.28627 4.10575 6.5516 4.34177C6.52363 4.61275 6.75573 4.62333 6.91586 4.70587Z" fill="#DD3C26"/>
<path id="Vector_3" fill-rule="evenodd" clip-rule="evenodd" d="M14.6407 26.2225C15.0387 25.0764 14.7553 23.6023 14.2363 22.6633H14.1149C14.1112 22.912 14.2544 23.0312 14.3172 23.2295C14.3589 23.3615 14.3537 23.5329 14.3982 23.6744C14.4463 23.8279 14.5387 23.9448 14.56 24.0788C14.6313 24.5292 14.6214 25.0826 14.6003 25.5348C14.5904 25.7492 14.4543 26.0894 14.6407 26.2225ZM15.8945 24.6857C15.8771 24.5575 15.916 24.3863 15.8945 24.2814C15.875 24.1862 15.7705 24.0844 15.7326 23.9579C15.6121 23.5551 15.4062 23.2568 15.2069 23.0276C15.1552 23.0254 15.1509 22.9758 15.0856 22.9872C15.2365 23.4545 15.6231 23.9436 15.6922 24.5645C15.7253 24.8629 15.7446 25.2478 15.6922 25.5758C15.6231 26.0103 15.2722 26.3631 15.2474 26.789C15.5408 26.7319 15.4255 26.2661 15.6922 26.1824C15.7079 25.7676 15.9773 25.3988 15.9753 24.969C15.975 24.8878 15.9083 24.7891 15.8945 24.6857ZM18.0785 26.9102C18.0473 26.2806 18.3712 25.4441 17.8359 25.0903C17.7538 25.3867 17.9887 25.5891 17.9975 25.9394C18.012 26.5059 17.5509 27.202 18.0785 27.5573C18.3059 27.3961 18.0908 27.1597 18.0785 26.9102ZM17.5124 25.4542C17.5037 25.4088 17.4673 25.3913 17.4314 25.3732C17.2745 25.7098 17.3439 26.1309 17.3099 26.5866C17.2941 26.8006 17.21 27.0107 17.2291 27.1527C17.2685 27.4459 17.458 27.8004 17.7953 27.8403C17.8345 27.575 17.5724 27.4145 17.5122 27.1122C17.4182 26.6415 17.5802 26.0557 17.5124 25.4542ZM18.8066 26.8292C18.6867 26.5313 18.7679 26.032 18.6853 25.6967C18.6763 25.6651 18.6514 25.6498 18.6043 25.6563C18.5322 26.0262 18.2975 26.7636 18.8066 26.8292ZM16.8248 27.8405C16.6691 27.4454 16.7956 26.8354 16.7439 26.3441C16.7264 26.1781 16.6893 25.9012 16.5415 25.8183H16.4607V25.9395C16.5297 26.6109 16.3077 27.4142 16.6223 27.9618V28.2449C16.6806 28.5061 17.3865 29.0111 17.5122 28.4471C17.2093 28.258 16.9707 28.2109 16.8248 27.8405ZM16.4202 28.9325C15.9306 28.3129 16.1788 27.3176 16.1371 26.3035C16.0853 26.3012 16.081 26.2516 16.0157 26.263C15.845 26.3862 15.9826 26.5905 15.9349 26.7888C15.9057 26.9101 15.7945 27.0194 15.773 27.1529C15.6821 27.7177 15.845 28.2906 15.9349 28.7706C16.1839 28.9801 16.2893 29.3329 16.7437 29.3368C16.74 29.1216 16.5219 29.0611 16.4202 28.9325ZM10.7176 26.4653C10.7632 27.1613 11.0613 27.6047 11.0815 28.3257C11.8149 27.9352 10.9032 27.0262 10.8389 26.4653H10.7176ZM14.479 29.7009C14.6219 29.4122 14.3175 29.2502 14.3576 28.9325C14.0192 28.3136 13.5574 27.8182 13.4275 26.9911C13.3697 26.9812 13.3593 26.9244 13.306 26.9101C13.2221 27.0554 13.2851 27.3473 13.2656 27.5573C13.533 28.22 13.9925 28.6908 14.3172 29.2962C14.3163 29.486 14.2817 29.7094 14.479 29.7009ZM15.0048 29.2156C14.9881 29.3805 15.0462 29.4707 15.207 29.4582C15.1932 29.0803 14.9169 28.8457 14.7623 28.5684C14.7392 28.5274 14.7856 28.4473 14.7623 28.4065C14.7302 28.3508 14.6311 28.3341 14.6004 28.2853C14.5588 28.2189 14.5518 28.1139 14.5196 28.0426C14.3757 27.7237 14.3248 27.4594 14.3577 26.9911C14.3061 26.9887 14.3018 26.9391 14.2365 26.9507C13.8837 27.636 14.422 28.4572 14.8027 28.9727C14.8709 29.0657 14.8561 29.2197 15.0048 29.2156ZM15.854 29.1751C15.5155 28.6779 15.2705 28.0868 15.2473 27.2743C15.1895 27.2644 15.1791 27.2077 15.1259 27.1933C15.0633 27.9988 15.1501 29.0015 15.854 29.1751Z" fill="#DD3C26"/>
</g>
</svg>
