<svg width="44" height="60" viewBox="0 0 44 60" fill="none" xmlns="http://www.w3.org/2000/svg">
<path d="M35.1283 53.9952V54.8286V54.8369L35.1296 54.8448L35.1296 54.8449L35.1296 54.845L35.1296 54.8451L35.1299 54.8466L35.131 54.8551C35.132 54.8631 35.1334 54.8755 35.1346 54.8921C35.1372 54.9253 35.1395 54.9753 35.138 55.0395C35.1348 55.168 35.1162 55.3537 35.0535 55.5775C34.9284 56.0241 34.6265 56.6277 33.9125 57.2354C32.4812 58.4536 29.3858 59.6945 22.7283 59.6945C15.3521 59.6945 11.9109 58.4532 10.3143 57.2321C9.51814 56.6232 9.18048 56.0194 9.03965 55.5743C8.96903 55.3512 8.94738 55.1663 8.94313 55.0386C8.94101 54.9748 8.94323 54.9252 8.94586 54.8923C8.94718 54.8759 8.94859 54.8636 8.94962 54.8558L8.95079 54.8476L8.95104 54.846L35.1283 53.9952ZM35.1283 53.9952L22.7726 54.7091L22.7616 54.7097L22.7617 54.7091L8.95257 53.9944V54.8286V54.8375L8.95106 54.8459L8.95104 54.846L35.1283 53.9952Z" fill="#D10822" stroke="#FC2F44" stroke-width="0.2"/>
<path d="M36.4978 39.6914L35.4972 53.3358L35.4971 53.3368L35.4971 53.3368L35.4971 53.3369L35.4971 53.3371L35.497 53.3381L35.4963 53.3455C35.4956 53.3525 35.4942 53.3636 35.4919 53.3785C35.4872 53.4084 35.4785 53.4536 35.4627 53.5121C35.4313 53.6289 35.3716 53.7987 35.259 54.004C35.034 54.4141 34.5959 54.9695 33.7428 55.5284C32.0344 56.6475 28.6612 57.781 22.0133 57.781C15.2596 57.781 11.9023 56.6473 10.236 55.529C9.40414 54.9707 8.99371 54.4164 8.79069 54.0077C8.68901 53.8029 8.63883 53.6337 8.61404 53.5173C8.60164 53.459 8.59559 53.4139 8.59263 53.3842C8.59116 53.3693 8.59045 53.3582 8.59012 53.3513L8.58985 53.344L8.58983 53.3431H8.59014L8.5895 53.3351L7.53256 40.1953L22.0392 42.3478L22.0556 42.3503L22.072 42.3473L36.4978 39.6914Z" fill="#D10822" stroke="#FC2F44" stroke-width="0.2"/>
<path d="M7.14244 39.5946L7.1416 39.5914L4.94034 16.5196L21.6726 19.9537L21.6926 19.9578L21.7126 19.9537L38.6095 16.5188L36.9177 39.0051L36.9166 39.0117C36.9153 39.0186 36.9132 39.0297 36.9097 39.0446C36.9027 39.0745 36.8904 39.1199 36.8696 39.1787C36.8279 39.2962 36.752 39.4676 36.6158 39.6756C36.3438 40.0914 35.8291 40.6566 34.8607 41.2321C32.9219 42.384 29.1668 43.5751 21.915 43.6853C14.9769 43.7907 11.2778 42.7472 9.31711 41.688C8.33755 41.1589 7.79227 40.626 7.49275 40.2304C7.34289 40.0325 7.25413 39.8684 7.20319 39.7555C7.17771 39.699 7.16166 39.6553 7.15216 39.6264C7.14741 39.612 7.14429 39.6013 7.14244 39.5946Z" fill="#D10822" stroke="#FC2F44" stroke-width="0.2"/>
<path d="M21.7412 13.9497L21.7177 14.0469L21.7388 14.052L21.7601 14.0479L21.7412 13.9497ZM21.7412 13.9497C21.7601 14.0479 21.7601 14.0479 21.7603 14.0479L21.7608 14.0478L21.7632 14.0473L21.7727 14.0455L21.8101 14.0384L21.9563 14.0109C22.0844 13.987 22.2724 13.9522 22.5118 13.909C22.9904 13.8226 23.6743 13.7023 24.4952 13.5667C26.1372 13.2956 28.3263 12.9636 30.5163 12.7202C32.7076 12.4767 34.8948 12.3223 36.5349 12.4048C37.3562 12.4461 38.0318 12.5464 38.5005 12.7202C38.9736 12.8955 39.1981 13.1294 39.2026 13.4186C39.2096 13.8626 39.1686 14.3075 39.1253 14.7203C39.1196 14.7748 39.1138 14.8287 39.1081 14.8821C39.0709 15.2306 39.0363 15.5546 39.0363 15.8231C39.0363 16.0084 38.9337 16.2227 38.709 16.4607C38.4857 16.6973 38.152 16.9462 37.7152 17.1991C36.8423 17.7046 35.5743 18.2166 34.0028 18.6746C30.861 19.5901 26.5217 20.2852 21.7412 20.2852C17.72 20.2852 13.4065 19.6266 10.099 18.792C8.44494 18.3747 7.04595 17.9143 6.0624 17.4719C5.57008 17.2504 5.18626 17.0354 4.92717 16.8352C4.79763 16.7352 4.70258 16.6413 4.64063 16.5551C4.57858 16.4688 4.55384 16.396 4.55383 16.3357C4.55381 16.1094 4.51805 15.7797 4.47577 15.3899C4.46956 15.3326 4.46321 15.2741 4.45681 15.2144C4.40645 14.7445 4.35204 14.1948 4.33468 13.6163C4.32136 13.1727 4.55381 12.8399 5.00138 12.593C5.45399 12.3434 6.11645 12.1891 6.92967 12.113C8.55375 11.9609 10.7366 12.1236 12.9308 12.4103C15.1232 12.6968 17.32 13.1059 18.9692 13.4436C19.7936 13.6124 20.481 13.7633 20.9621 13.8719C21.2027 13.9263 21.3917 13.97 21.5205 14.0002C21.5849 14.0153 21.6343 14.027 21.6675 14.0349L21.7051 14.0439L21.7146 14.0462L21.717 14.0467L21.7175 14.0469C21.7177 14.0469 21.7177 14.0469 21.7412 13.9497Z" fill="#D10822" stroke="#FC2F44" stroke-width="0.2"/>
<path d="M21.6494 10.7338L21.6607 10.7338L39.8665 10.8666L39.8574 11.0126C39.8477 11.1639 39.8344 11.3665 39.8196 11.5717C39.8048 11.7771 39.7885 11.9846 39.7731 12.1459C39.7654 12.2267 39.758 12.2949 39.7512 12.3452C39.7477 12.3704 39.7446 12.3899 39.7419 12.4037C39.7408 12.4096 39.7399 12.4133 39.7393 12.4153C38.7849 14.204 36.6003 15.347 33.4701 16.0398C30.3412 16.7324 26.295 16.9693 21.6614 16.9693C16.7882 16.9693 12.4237 16.3441 9.22768 15.5043C7.62928 15.0843 6.32629 14.6115 5.39902 14.1381C4.93523 13.9014 4.56854 13.666 4.3064 13.4393C4.04246 13.2111 3.89429 12.9999 3.84933 12.8137C3.82497 12.7128 3.8004 12.546 3.77046 12.3427C3.75178 12.2159 3.73101 12.0748 3.70689 11.9268C3.64565 11.5508 3.56344 11.1358 3.43979 10.8457C3.38213 10.7104 3.39389 10.6032 3.45508 10.509C3.5209 10.4078 3.65172 10.3099 3.85699 10.221C4.26641 10.0436 4.92052 9.92324 5.75148 9.8508C7.40903 9.70631 9.7268 9.75561 12.0844 9.88634C14.4407 10.017 16.832 10.2287 18.6345 10.4077C19.5357 10.4973 20.2896 10.5786 20.8181 10.6376C21.0823 10.6671 21.2902 10.691 21.432 10.7075L21.594 10.7265L21.6355 10.7314L21.646 10.7327L21.6486 10.733L21.6492 10.7331C21.6494 10.7331 21.6494 10.7331 21.6614 10.6338L21.6494 10.7338Z" fill="#D10822" stroke="#FC2F44" stroke-width="0.2"/>
<path d="M39.8301 11.2708C39.8301 11.47 39.7312 11.6754 39.5163 11.8857C39.3011 12.0964 38.9768 12.3046 38.5457 12.5058C37.6841 12.9082 36.4177 13.2732 34.8086 13.5807C31.592 14.1955 27.0273 14.5764 21.6441 14.5764C16.2652 14.5764 11.6751 13.9073 8.4314 13.1398C6.80925 12.756 5.52575 12.3481 4.64958 11.988C4.21097 11.8077 3.87777 11.6407 3.65589 11.4964C3.54467 11.424 3.46516 11.3598 3.41462 11.3051C3.36151 11.2477 3.35303 11.2146 3.35303 11.2034C3.35303 11.028 3.29381 10.8458 3.21058 10.6535C3.15553 10.5263 3.08663 10.3876 3.01267 10.2388C2.97527 10.1635 2.93659 10.0857 2.89774 10.0054C2.67489 9.54472 2.43076 8.97273 2.31899 8.21828L21.6433 7.96532L40.8829 8.55233C40.8595 9.16618 40.6179 9.70803 40.3698 10.1586C40.3047 10.2769 40.2394 10.3883 40.1776 10.4932L40.1605 10.5223C40.1053 10.6159 40.053 10.7047 40.0074 10.787C39.9573 10.8775 39.9137 10.9631 39.8825 11.0417C39.8517 11.1194 39.8301 11.1973 39.8301 11.2708Z" fill="#D10822" stroke="#FC2F44" stroke-width="0.2"/>
<path d="M43.7889 5.77988C43.7889 8.5549 35.556 11.0273 22.0908 11.0273C8.6257 11.0273 0.0495605 8.55488 0.0495605 5.77987C0.0495605 3.00486 8.6257 0.903198 22.0908 0.903198C35.556 0.903198 43.7889 3.00487 43.7889 5.77988Z" fill="#FDFDFF"/>
<path d="M41.1522 5.25323C41.1522 7.72856 33.8084 9.93396 21.7974 9.93396C9.78644 9.93396 2.13647 7.72855 2.13647 5.25322C2.13647 2.77789 9.78644 0.903198 21.7974 0.903198C33.8084 0.903198 41.1522 2.7779 41.1522 5.25323Z" fill="#DCC0CF"/>
<mask id="path-9-inside-1_319_103" fill="white">
<path fill-rule="evenodd" clip-rule="evenodd" d="M38.7535 7.65783C35.0161 9.02837 29.1591 9.93396 21.694 9.93396C14.2838 9.93396 8.35422 9.04166 4.5199 7.68802C6.169 6.09537 12.5403 4.82651 21.782 4.82651C30.9652 4.82651 37.1152 6.07937 38.7535 7.65783Z"/>
</mask>
<path fill-rule="evenodd" clip-rule="evenodd" d="M38.7535 7.65783C35.0161 9.02837 29.1591 9.93396 21.694 9.93396C14.2838 9.93396 8.35422 9.04166 4.5199 7.68802C6.169 6.09537 12.5403 4.82651 21.782 4.82651C30.9652 4.82651 37.1152 6.07937 38.7535 7.65783Z" fill="#E1C2D2"/>
<path d="M38.7535 7.65783L38.8052 7.79865L39.0302 7.71612L38.8576 7.5498L38.7535 7.65783ZM4.5199 7.68802L4.41569 7.58012L4.24115 7.74869L4.46996 7.82946L4.5199 7.68802ZM38.7019 7.517C34.9875 8.87912 29.15 9.78396 21.694 9.78396V10.084C29.1683 10.084 35.0448 9.17763 38.8052 7.79865L38.7019 7.517ZM21.694 9.78396C14.293 9.78396 8.38215 8.89245 4.56983 7.54657L4.46996 7.82946C8.32629 9.19087 14.2745 10.084 21.694 10.084V9.78396ZM4.6241 7.79591C5.013 7.42033 5.69596 7.05111 6.66303 6.71049C7.62643 6.37117 8.85765 6.06502 10.3295 5.80778C13.273 5.29336 17.1672 4.97651 21.782 4.97651V4.67651C17.155 4.67651 13.2428 4.99409 10.2779 5.51226C8.79561 5.77132 7.5472 6.08101 6.56337 6.42753C5.58321 6.77276 4.85134 7.15938 4.41569 7.58012L4.6241 7.79591ZM21.782 4.97651C26.3675 4.97651 30.1917 5.28936 33.071 5.79796C34.5108 6.05228 35.7114 6.35504 36.6515 6.69078C37.5949 7.0277 38.2627 7.39325 38.6495 7.76585L38.8576 7.5498C38.4252 7.13317 37.7099 6.75019 36.7524 6.40826C35.7916 6.06514 34.5736 5.75873 33.1232 5.50253C30.2221 4.99008 26.3796 4.67651 21.782 4.67651V4.97651Z" fill="#FAF5FB" mask="url(#path-9-inside-1_319_103)"/>
<mask id="path-11-inside-2_319_103" fill="white">
<path fill-rule="evenodd" clip-rule="evenodd" d="M35.1436 8.63672C31.6246 9.44428 27.0774 9.93397 21.6939 9.93397C16.3484 9.93397 11.7734 9.45117 8.19958 8.65377C11.2803 7.88337 15.9619 7.38016 21.7819 7.38016C27.5588 7.38016 32.1354 7.87596 35.1436 8.63672Z"/>
</mask>
<path fill-rule="evenodd" clip-rule="evenodd" d="M35.1436 8.63672C31.6246 9.44428 27.0774 9.93397 21.6939 9.93397C16.3484 9.93397 11.7734 9.45117 8.19958 8.65377C11.2803 7.88337 15.9619 7.38016 21.7819 7.38016C27.5588 7.38016 32.1354 7.87596 35.1436 8.63672Z" fill="#E1C2D2"/>
<path d="M35.1436 8.63672L35.1772 8.78292L35.1804 8.4913L35.1436 8.63672ZM8.19958 8.65377L8.1632 8.50825L8.16692 8.80017L8.19958 8.65377ZM35.1101 8.49052C31.6046 9.29497 27.0691 9.78397 21.6939 9.78397V10.084C27.0858 10.084 31.6446 9.59359 35.1772 8.78292L35.1101 8.49052ZM21.6939 9.78397C16.3567 9.78397 11.793 9.30186 8.23225 8.50737L8.16692 8.80017C11.7538 9.60048 16.3401 10.084 21.6939 10.084V9.78397ZM8.23597 8.79929C11.3004 8.03299 15.9685 7.53016 21.7819 7.53016V7.23016C15.9554 7.23016 11.2603 7.73376 8.1632 8.50825L8.23597 8.79929ZM21.7819 7.53016C27.5523 7.53016 32.1153 8.02559 35.1069 8.78214L35.1804 8.4913C32.1556 7.72633 27.5653 7.23016 21.7819 7.23016V7.53016Z" fill="#FAF5FB" mask="url(#path-11-inside-2_319_103)"/>
<path d="M37.7535 7.83679H20.5146L3.00305 7.83678C3.00305 6.24024 9.8167 4.82648 20.5146 4.82648C31.2125 4.82648 37.7535 6.24024 37.7535 7.83679Z" fill="#FFD53C"/>
<path d="M16.9809 3.40335C16.9809 4.00807 16.4918 4.56899 15.6427 4.56899C14.7902 4.56899 14.2809 4.00498 14.2809 3.40335C14.2809 3.10073 14.4076 2.83702 14.6365 2.64634C14.867 2.45431 15.2088 2.33066 15.6427 2.33066C16.0765 2.33066 16.4117 2.45423 16.6358 2.64526C16.8584 2.83499 16.9809 3.09866 16.9809 3.40335Z" fill="#FDFDFF" stroke="#FFD53C" stroke-width="0.3"/>
<path d="M28.4757 3.74003C28.4757 4.03248 28.2401 4.3152 27.8054 4.3152C27.3675 4.3152 27.1222 4.0294 27.1222 3.74003C27.1222 3.59355 27.1829 3.46702 27.2939 3.3745C27.4066 3.28063 27.5788 3.2161 27.8054 3.2161C28.032 3.2161 28.2002 3.28054 28.3092 3.37342C28.4166 3.46499 28.4757 3.59148 28.4757 3.74003Z" fill="#FDFDFF" stroke="#FFD53C" stroke-width="0.3"/>
<path d="M23.1945 5.85454C23.1945 6.14699 22.9589 6.4297 22.5242 6.4297C22.0863 6.4297 21.841 6.1439 21.841 5.85453C21.841 5.70805 21.9017 5.58152 22.0127 5.489C22.1254 5.39513 22.2976 5.3306 22.5242 5.3306C22.7508 5.3306 22.919 5.39505 23.028 5.48792C23.1354 5.57949 23.1945 5.70598 23.1945 5.85454Z" fill="#FDFDFF" stroke="#FFD53C" stroke-width="0.3"/>
<path d="M38.7535 7.84204L21.5146 7.65608L4.00305 7.84205C4.00305 8.80779 10.8167 10.7107 21.5146 10.7107C32.2125 10.7107 38.7535 8.80779 38.7535 7.84204Z" fill="#FFD53C"/>
<path fill-rule="evenodd" clip-rule="evenodd" d="M22.0908 11.0273C35.556 11.0273 43.7889 8.5549 43.7889 5.77988C43.7889 3.00487 35.556 0.903198 22.0908 0.903198C22.0405 0.903198 21.9902 0.903228 21.9399 0.903286C33.8665 0.918059 41.1522 2.78771 41.1522 5.25323C41.1522 7.72856 33.8084 9.93396 21.7974 9.93396C9.78644 9.93396 2.13647 7.72855 2.13647 5.25322C2.13647 3.12527 7.78996 1.4412 17.0074 1.01044C6.50478 1.47161 0.0495605 3.37233 0.0495605 5.77987C0.0495605 8.55488 8.6257 11.0273 22.0908 11.0273Z" fill="#FDFDFF"/>
</svg>
