<svg width="20" height="21" viewBox="0 0 20 21" fill="none" xmlns="http://www.w3.org/2000/svg">
<path d="M20 0.532471H0V20.4675H20V0.532471Z" fill="#007ACD"/>
<path d="M4.0817 11.2919V9.60362H10.9648V11.2919H8.56221V18.4997H6.48429V11.2919H4.0817Z" fill="white"/>
<path d="M17.5233 10.9023L16.0297 11.9413C16.0297 11.9413 15.4258 11.2785 14.9258 11.2919C14.4476 11.3048 14.2319 11.6098 13.8869 11.9413C12.8602 12.9275 18.0427 13.8957 18.0427 16.227C18.0427 18.0887 16.5067 18.7177 14.9258 18.8244C13.3941 18.9278 11.5492 16.8114 11.5492 16.8114L12.9778 15.8374C12.9778 15.8374 14.0352 17.3427 14.9258 17.1361C15.4699 17.0099 15.9452 16.779 16.0297 16.227C16.1276 15.5879 15.5261 15.2333 14.9258 14.9932C12.9778 14.214 11.8739 13.6945 11.8739 11.9413C11.8739 10.3597 13.3447 9.24233 14.9258 9.27895C16.1217 9.30664 17.5233 10.9023 17.5233 10.9023Z" fill="white"/>
</svg>
